<?xml version="1.0" standalone="no"?>
<!DOCTYPE svg PUBLIC "-//W3C//DTD SVG 1.1//EN" "http://www.w3.org/Graphics/SVG/1.1/DTD/svg11.dtd" >
<!--
2013-9-30: Created.
-->
<svg>
<metadata>
Created by iconfont
</metadata>
<defs>

<font id="iconfont" horiz-adv-x="1024" >
  <font-face
    font-family="iconfont"
    font-weight="500"
    font-stretch="normal"
    units-per-em="1024"
    ascent="896"
    descent="-128"
  />
    <missing-glyph />
    
    <glyph glyph-name="jiage" unicode="&#58986;" d="M512 832C264.576 832 64 631.424 64 384c0-247.36 200.576-448 448-448 247.424 0 448 200.64 448 448C960 631.424 759.424 832 512 832zM689.728 417.536l0-94.656L564.48 322.88l0-32.832 125.248 0 0-94.784L564.48 195.264l0-91.008L471.168 104.256l0 91.008L349.44 195.264 349.44 290.048l121.728 0L471.168 322.88 349.44 322.88 349.44 417.536l71.104 0L301.312 637.312l107.712 0L512 447.744l102.912 189.568 107.776 0L603.456 417.536 689.728 417.536z"  horiz-adv-x="1024" />

    
    <glyph glyph-name="icon4" unicode="&#58938;" d="M514.553149 812 101.099582 678.102431l2.093684-521.42158 0.470721-5.644557c0.750083-3.432169 16.653285-86.264713 96.209202-166.060083 61.167105-61.521169 211.168444-141.867078 275.176247-176.163185 10.061147-5.405103 17.558911-9.390881 21.866007-11.837606l15.190981-8.404414 18.662035 9.664104c37.415145 18.707061 227.705072 115.628484 298.419623 186.621375 79.635735 79.875189 95.540983 162.706709 96.214319 166.139901l2.604314 527.065114L514.553149 812 514.553149 812zM862.337063 160.271632c-2.995217-12.156878-20.12434-72.177879-78.133521-130.427538C725.246779-29.425801 560.13223-115.531901 513.209548-139.408705c-2.485611 1.299599-5.16872 2.683109-8.007371 4.222161-56.278771 30.147624-205.682499 110.180402-260.220626 165.031661-58.166771 58.328453-75.17719 118.27066-78.177524 130.427538l-1.893116 471.580428L514.553149 745.150476l349.644285-113.298416L862.337063 160.271632 862.337063 160.271632zM355.296005 539.944837l74.795497 0 0-427.363368-74.795497 0L355.296005 539.944837 355.296005 539.944837 355.296005 539.944837zM585.05076 267.485469 392.693754 267.485469c-20.612457 0-37.397748 16.723893-37.397748 37.331233 0 20.735253 16.723893 37.459147 37.397748 37.459147l192.357006 0c20.611433 0 37.33635-16.723893 37.33635-37.459147C622.449531 284.209362 605.663216 267.485469 585.05076 267.485469L585.05076 267.485469 585.05076 267.485469zM585.05076 481.25618 307.219033 481.25618c-20.608364 0-37.332257 16.723893-37.332257 37.397748 0 20.612457 16.723893 37.338397 37.332257 37.338397l277.831726 0c20.611433 0 37.33635-16.723893 37.33635-37.338397C622.449531 497.980074 605.66424 481.25618 585.05076 481.25618L585.05076 481.25618 585.05076 481.25618zM478.101959 96.662919 307.157635 96.662919c-20.611433 0-37.335327 16.723893-37.335327 37.338397 0 20.60734 16.723893 37.33635 37.335327 37.33635l171.005722 0c20.612457 0 37.337373-16.72901 37.337373-37.337373C515.499707 113.386812 498.837212 96.662919 478.101959 96.662919L478.101959 96.662919 478.101959 96.662919zM734.642776 96.662919 630.594025 96.662919c12.278651 19.868513 21.22951 16.723893 21.22951 37.337373 0 20.60734-20.611433 37.33635 0 37.33635l82.697467 0c20.60734 0 37.331233-16.72901 37.331233-37.33635C771.852236 113.386812 755.256256 96.662919 734.642776 96.662919L734.642776 96.662919 734.642776 96.662919zM630.656447 96.662919 510.810918 284.698502l62.945611 40.36329L693.667549 138.255199 630.656447 96.662919 630.656447 96.662919zM579.99051 267.485469c-20.736277 0-37.46017 16.723893-37.46017 37.331233 0 20.735253 16.723893 37.459147 37.46017 37.459147 38.20309 0 69.427232 31.230282 69.428256 69.429279 0 38.325887-31.225165 69.489654-69.427232 69.489654-20.7373 0-37.46017 16.723893-37.46017 37.398772 0 20.611433 16.723893 37.335327 37.461193 37.335327 79.423911 0 144.286174-64.677045 144.286174-144.223752S659.537218 267.485469 579.99051 267.485469L579.99051 267.485469 579.99051 267.485469z"  horiz-adv-x="1024" />

    
    <glyph glyph-name="biaoqian" unicode="&#58953;" d="M999.002441 351.95313L515.749634 834.506005c-17.09833 17.09833-40.096084 31.596914-68.893272 43.595743C418.059174 890.000586 391.661752 896 367.664095 896L86.491554 896C63.093838 895.90001 42.795821 887.40084 25.69749 870.4025 8.59916 853.204179 0.09999 832.906162 0 809.508446l0-281.172542c0-23.897666 5.999414-50.295088 17.898252-79.092276 11.998828-28.797188 26.497412-51.494971 43.695733-68.293331l483.252807-483.952739c16.698369-16.698369 36.896397-24.997559 60.794063-24.997559 23.397715 0 43.995704 8.29919 61.493995 24.997559L999.002441 229.56508199999996c16.79836 16.698369 25.097549 36.996387 25.097549 60.794063C1024.09999 313.85685 1015.70081 334.35484799999995 999.002441 351.95313zM277.472903 618.527097c-16.99834-16.99834-37.296358-25.39752-61.094034-25.29753-23.897666 0-44.295674 8.39918-61.194024 25.29753-16.89835 16.89835-25.39752 37.296358-25.39752 61.194024 0 23.797676 8.39918 44.295674 25.29753 61.194024s37.196368 25.29753 61.194024 25.29753c23.797676 0 44.295674-8.39918 61.194024-25.29753 16.89835-16.99834 25.29753-37.296358 25.29753-61.194024C302.770433 655.823455 294.371253 635.4254470000001 277.472903 618.527097z"  horiz-adv-x="1025" />

    
    <glyph glyph-name="guanli" unicode="&#58881;" d="M1053.723 455.558c-4.02 22.319-25.533 45.035-47.852 50.061l-16.683 3.824c-39.208 11.859-73.989 37.794-96.102 75.992-22.117 38.403-27.344 82.028-17.694 122.037l5.228 15.682c6.637 21.714-2.006 51.67-19.5 66.548 0 0-15.683 13.267-59.912 38.801-44.229 25.332-63.327 32.371-63.327 32.371-21.514 7.838-51.67 0.402-67.354-16.286l-11.662-12.468c-29.755-28.144-69.763-45.235-113.992-45.235s-84.639 17.292-114.395 45.638l-11.26 12.066c-15.481 16.688-45.839 24.125-67.352 16.286 0 0-19.3-7.039-63.53-32.371-44.229-25.734-59.711-39.002-59.711-39.002-17.493-14.677-26.137-44.43-19.5-66.347l4.825-15.883c9.448-40.009 4.422-83.434-17.694-121.836-22.113-38.399-57.296-64.537-96.7-76.193l-16.085-3.623c-22.117-5.026-43.832-27.541-47.852-50.061 0 0-3.618-20.105-3.618-71.17 0-51.062 3.618-71.167 3.618-71.167 4.02-22.52 25.533-45.035 47.852-50.061l15.682-3.623c39.405-11.657 74.79-37.794 96.902-76.394 22.117-38.403 27.344-82.028 17.694-122.037l-4.624-15.481c-6.636-21.714 2.008-51.67 19.5-66.547 0 0 15.683-13.267 59.912-38.801 44.229-25.533 63.328-32.371 63.328-32.371 21.514-7.838 51.67-0.402 67.352 16.286l11.059 11.864c29.956 28.345 70.165 45.638 114.595 45.638 44.432 0 84.842-17.494 114.595-45.839l11.059-11.864c15.481-16.688 45.84-24.125 67.354-16.286 0 0 19.299 7.039 63.529 32.371 44.23 25.533 59.711 38.801 59.711 38.801 17.494 14.677 26.137 44.632 19.5 66.547l-4.823 16.085c-9.449 39.806-4.423 83.231 17.694 121.433 22.112 38.399 57.496 64.737 96.901 76.394l15.682 3.623c22.117 5.026 43.827 27.541 47.852 50.061 0 0 3.618 20.105 3.618 71.17-0.201 51.263-3.818 71.368-3.818 71.368v0zM544.872 179.92399999999998c-112.79 0-204.464 91.477-204.464 204.464 0 112.789 91.473 204.266 204.464 204.266 112.79 0 204.464-91.478 204.464-204.464-0.201-112.789-91.673-204.266-204.464-204.266v0z"  horiz-adv-x="1098" />

    
    <glyph glyph-name="more" unicode="&#58935;" d="M147.01175 465.109296c-44.791136 0-81.108273-36.303834-81.108273-81.109296 0-44.778856 36.316114-81.108273 81.108273-81.108273 44.792159 0 81.109296 36.329417 81.109296 81.108273C228.121046 428.805462 191.804932 465.109296 147.01175 465.109296zM511.999488 465.109296c-44.791136 0-81.108273-36.303834-81.108273-81.109296 0-44.778856 36.316114-81.108273 81.108273-81.108273 44.792159 0 81.109296 36.329417 81.109296 81.108273C593.108784 428.805462 556.791647 465.109296 511.999488 465.109296zM876.987227 465.109296c-44.791136 0-81.108273-36.303834-81.108273-81.109296 0-44.778856 36.316114-81.108273 81.108273-81.108273s81.108273 36.329417 81.108273 81.108273C958.094476 428.805462 921.778362 465.109296 876.987227 465.109296z"  horiz-adv-x="1024" />

    
    <glyph glyph-name="xingye" unicode="&#58910;" d="M364.7 706.3l0-238L120.4 468.3l0 238L364.7 706.3M372.1 764.2 113 764.2c-27.9 0-50.5-22.6-50.5-50.5L62.5 461c0-27.9 22.6-50.5 50.5-50.5l259.1 0c27.9 0 50.5 22.6 50.5 50.5L422.6 713.7C422.7 741.6 400 764.2 372.1 764.2L372.1 764.2zM364.7 238.8l0-238L120.4 0.8l0 238L364.7 238.8M372.1 296.7 113 296.7c-27.9 0-50.5-22.6-50.5-50.5l0-252.7c0-27.9 22.6-50.5 50.5-50.5l259.1 0c27.9 0 50.5 22.6 50.5 50.5L422.6 246.1C422.7 274 400 296.7 372.1 296.7L372.1 296.7zM838.6 238.8l0-238L594.3 0.8l0 238L838.6 238.8M846 296.7 586.9 296.7c-27.9 0-50.5-22.6-50.5-50.5l0-252.7c0-27.9 22.6-50.5 50.5-50.5L846-57c27.9 0 50.5 22.6 50.5 50.5L896.5 246.1C896.5 274 873.9 296.7 846 296.7L846 296.7zM732.2 764.2l168.3-168.3L727.8 423.1 559.4 591.4 732.2 764.2M732.2 825.2c-12.9 0-25.9-4.9-35.7-14.8L513.3 627.2c-19.7-19.8-19.7-51.7 0-71.5L692 377c9.9-9.9 22.8-14.8 35.7-14.8 12.9 0 25.9 4.9 35.7 14.8l183.2 183.2c19.7 19.8 19.7 51.8 0 71.5L768 810.3C758.1 820.2 745.1 825.2 732.2 825.2L732.2 825.2z"  horiz-adv-x="1024" />

    
    <glyph glyph-name="xiaohai" unicode="&#58960;" d="M512 768c-212.096 0-384-171.904-384-384s171.904-384 384-384 384 171.904 384 384S724.096 768 512 768zM512 31.36c-194.816 0-352.64 157.952-352.64 352.64S317.184 736.64 512 736.64 864.64 578.816 864.64 384 706.816 31.36 512 31.36zM512 640c-141.44 0-256-114.56-256-256 0-141.44 114.56-256 256-256 141.44 0 256 114.56 256 256C768 525.44 653.44 640 512 640L512 640 512 640zM512 161.024c-123.136 0-222.976 99.84-222.976 222.976 0 2.816 0 5.632 0.128 8.32 17.536 9.216 51.712 96.768 65.92 82.432 14.336-14.336 8.832-48.512 33.024-49.536 24.192-1.024 61.44 55.168 82.56 49.536 21.12-5.632-8.704-71.68 16.512-66.048 25.216 5.632 63.744 74.88 82.56 66.048 18.816-8.704 2.688-52.864 33.024-49.536 30.336 3.328 47.36 45.056 82.56 49.536 14.976 1.92 25.216-1.792 32.384-4.992 11.008-26.496 17.152-55.424 17.152-85.888C734.976 260.864 635.136 161.024 512 161.024L512 161.024 512 161.024zM597.76 334.464c13.696 0 24.704 11.136 24.704 24.832 0 13.696-11.136 24.832-24.704 24.832-13.696 0-24.832-11.136-24.832-24.832C572.928 345.6 583.936 334.464 597.76 334.464L597.76 334.464 597.76 334.464zM515.072 219.904c-72.576 0-112.64 34.176-118.144 67.456-0.384-2.816-0.64-6.016-0.64-9.6 0-45.568 41.216-83.584 118.656-83.584 77.568 0 118.784 38.016 118.784 83.584 0 3.072-0.256 5.76-0.896 8.32C626.56 253.44 586.752 219.904 515.072 219.904L515.072 219.904 515.072 219.904zM432.512 334.464c13.696 0 24.832 11.136 24.832 24.832 0 13.696-11.136 24.832-24.832 24.832-13.696 0-24.704-11.136-24.704-24.832C407.808 345.6 418.816 334.464 432.512 334.464L432.512 334.464 432.512 334.464zM432.512 334.464"  horiz-adv-x="1024" />

    
    <glyph glyph-name="circle-info" unicode="&#58958;" d="M510.976182-59.063954999999964c-244.807588 0-443.966511 199.171202-443.966511 443.966511 0 244.802472 199.158922 443.966511 443.966511 443.966511 244.808612 0 443.966511-199.165062 443.966511-443.966511C954.942693 140.10724700000003 755.784794-59.063954999999964 510.976182-59.063954999999964zM510.976182 777.94935c-216.724996 0-393.045771-176.321798-393.045771-393.045771 0-216.724996 176.321798-393.046794 393.045771-393.046794 216.724996 0 393.046794 176.321798 393.046794 393.046794C904.022976 601.627553 727.701179 777.94935 510.976182 777.94935zM515.662925 178.44132100000002c-14.060227 0-25.460882 11.405771-25.460882 25.459858l0 255.406994-44.555775 0c-14.060227 0-25.459858 11.393491-25.459858 25.460882 0 14.060227 11.399631 25.459858 25.459858 25.459858l70.016657 0c14.060227 0 25.460882-11.399631 25.460882-25.459858l0-280.867876C541.123806 189.84709199999998 529.723152 178.44132100000002 515.662925 178.44132100000002zM585.679581 178.44132100000002L445.646268 178.44132100000002c-14.060227 0-25.459858 11.405771-25.459858 25.459858 0 14.066367 11.399631 25.460882 25.459858 25.460882l140.033313 0c14.060227 0 25.460882-11.394515 25.460882-25.460882C611.140463 189.84709199999998 599.739808 178.44132100000002 585.679581 178.44132100000002zM496.655012 558.7254399999999c-21.930475 0-39.782052 17.845437-39.782052 39.782052s17.851577 39.782052 39.782052 39.782052 39.782052-17.845437 39.782052-39.782052S518.584464 558.7254399999999 496.655012 558.7254399999999zM496.655012 609.64618c-6.141884 0-11.139711-4.997827-11.139711-11.138688s4.997827-11.138688 11.139711-11.138688c6.14086 0 11.138688 4.997827 11.138688 11.138688S502.795872 609.64618 496.655012 609.64618z"  horiz-adv-x="1024" />

    
    <glyph glyph-name="zhiye1" unicode="&#59006;" d="M727.347626 297.899016c33.038464 0 59.839877 25.590841 59.839877 57.173141 0 31.582299-26.798343 57.170071-59.839877 57.170071-33.05279 0-59.839877-25.586748-59.839877-57.170071C667.50775 323.489858 694.295859 297.899016 727.347626 297.899016zM847.035566 238.659821c0 31.56695 0 48.409546-32.247448 48.409546l-16.125259 0-64.611553-128.576377 16.244986 112.438838-24.184819 26.892487-24.180725-26.892487 16.118096-112.947422-64.491827 129.077797-16.118096 0c-32.248472 0-32.248472-16.835434-32.248472-48.403406l0-96.804766L847.035566 141.854031 847.035566 238.659821zM214.19129 216.358909l186.129164 0 0-37.255509-186.129164 0 0 37.255509ZM921.484162 663.401478 586.450642 663.401478l0 74.507948c0 0 0 37.256532-37.22481 37.256532l-74.449619 0c-37.227879 0-37.227879-37.256532-37.227879-37.256532l0-74.507948-335.030449 0c-37.227879 0-37.227879-37.248346-37.227879-37.248346l0-596.061534c0-37.256532 37.227879-37.256532 37.227879-37.256532l818.966277 0c0 0 37.22481 0 37.22481 37.256532L958.708971 626.153132C958.708971 626.153132 958.708971 663.401478 921.484162 663.401478zM511.99693 744.120894c17.132192 0 31.025621-13.896498 31.025621-31.045063 0-17.145495-13.893428-31.04404-31.025621-31.04404s-31.017434 13.898545-31.017434 31.04404C480.979496 730.224396 494.864738 744.120894 511.99693 744.120894zM437.549358 626.153132l148.901285 0 0-37.256532L437.549358 588.8966 437.549358 626.153132zM921.484162 30.091598 102.518908 30.091598 102.518908 551.640068l818.966277 0L921.485185 30.091598zM214.19129 439.883775l335.034543 0 0-37.256532-335.034543 0 0 37.256532ZM214.19129 328.120318l260.584923 0 0-37.256532-260.584923 0 0 37.256532Z"  horiz-adv-x="1024" />

    
    <glyph glyph-name="education" unicode="&#58995;" d="M981.600015 522.273792 981.600015 352.73728l35.689472-35.699712-74.415104-77.443072-75.336704 75.158528 51.58912 46.90944L919.126799 495.510528c-218.90048-90.257408-289.074176-118.310912-337.620992-140.2112-48.54784-21.900288-83.506176-21.789696-131.652608-3.647488-48.1536 18.147328-277.363712 101.80096-391.17824 156.269568-75.948032 36.340736-80.837632 59.388928 1.304576 90.231808 107.200512 40.725504 284.38528 105.946112 378.305536 141.541376 55.593984 22.490112 84.995072 34.768896 136.026112 9.121792C665.431823 711.189504 873.641743 633.058304 977.174287 590.3104 1067.299599 550.979584 1006.710543 538.042368 981.600015 522.273792L981.600015 522.273792zM592.063247 288.190464c52.936704 21.84192 124.314624 57.957376 202.141696 91.298816L794.204943 111.79008c0 0-100.652032-107.07456-277.599232-107.07456-190.558208 0-293.490688 107.07456-293.490688 107.07456L223.115023 361.663488c60.068864-24.4736 127.521792-45.531136 209.153024-73.473024C482.579215 270.28992 546.421519 264.100864 592.063247 288.190464L592.063247 288.190464zM592.063247 288.190464"  horiz-adv-x="1027" />

    
    <glyph glyph-name="chart38" unicode="&#59001;" d="M512 896C229.232 896 0 666.768 0 384s229.232-512 512-512 512 229.232 512 512S794.768 896 512 896zM512-32C282.256-32 96 154.25599999999997 96 384 96 613.744 282.256 800 512 800l0-416 294.16-294.16C730.88 14.559999999999945 626.88-32 512-32z"  horiz-adv-x="1024" />

    
    <glyph glyph-name="yewutubiaosheng" unicode="&#58951;" d="M956.8 561.92c-8.96 0-16-7.04-16-16L940.8 172.8c0-17.28-8.96-33.28-24.32-41.6L544-81.92c-14.72-8.32-32.64-8.32-47.36 0L123.52 131.2c-14.72 8.32-24.32 24.32-24.32 41.6l0 424.96c0 17.28 8.96 33.28 24.32 41.6l372.48 213.12c14.72 8.32 32.64 8.32 47.36 0l334.72-191.36c7.68-4.48 17.28-1.92 21.76 5.76 4.48 7.68 1.92 17.28-5.76 21.76l-334.72 191.36c-24.32 14.08-55.04 14.08-79.36 0L107.52 667.52c-24.96-14.08-40.32-40.96-40.32-69.76L67.2 172.8c0-28.8 15.36-55.04 40.32-69.76L480-109.44c12.16-7.04 26.24-10.24 39.68-10.24 13.44 0 27.52 3.2 39.68 10.24l373.12 213.12c24.96 14.08 40.32 40.96 40.32 69.76l0 372.48C972.8 554.24 965.76 561.92 956.8 561.92zM692.48 578.56 627.2 578.56c7.68-26.24 16.64-52.48 26.88-76.8l67.2 0C710.4 526.72 700.8 552.32 692.48 578.56zM727.68 492.16c-63.36-19.2-115.84-33.28-166.4-44.8l0 148.48-69.76 0L491.52 434.56c-54.4-8.96-111.36-14.72-181.76-19.2l0-33.92c22.4 0.64 44.8 2.56 65.28 3.84-10.24-5.12-17.28-15.36-17.28-26.88l0-166.4c0-17.28 14.08-30.08 30.72-30.08l292.48 0c17.28 0 30.72 13.44 30.72 30.08l0 166.4c0 17.28-14.08 30.72-30.72 30.72l-266.88 0c129.28 12.16 222.08 33.28 313.6 64L727.68 492.16zM427.52 344.96c0 9.6 8.32 17.28 17.28 17.28l179.84 0c9.6 0 17.28-7.68 17.28-17.28L641.92 320l-215.04 0L426.88 344.96zM427.52 294.4l215.04 0 0-38.4-215.04 0L427.52 294.4zM427.52 229.76l215.04 0L642.56 204.8c0-9.6-7.68-17.28-17.28-17.28l-179.84 0c-8.96 0-17.28 7.68-17.28 17.28L428.16 229.76zM369.28 578.56c-13.44-41.6-29.44-81.92-48-120.96l67.2 0c19.84 39.04 34.56 79.36 46.72 120.96L369.28 578.56z"  horiz-adv-x="1024" />

    
    <glyph glyph-name="search" unicode="&#58891;" d="M973.176-10.230999999999995l-193.396 200.835c52.068 74.383 81.821 156.205 81.821 252.903 0 230.588-185.958 416.546-416.546 416.546s-416.546-185.958-416.546-416.546 185.958-416.546 416.546-416.546c96.698 0 185.958 37.191 260.341 89.259l193.396-200.835c7.438-7.438 22.315-14.877 37.191-14.877s22.315 7.438 37.191 14.877c14.877 22.315 14.877 59.506 0 74.383l0 0 0 0zM221.906 220.35699999999997c-59.506 59.506-89.259 141.328-89.259 223.15s29.753 163.643 89.259 223.15c59.506 59.506 141.328 96.698 223.15 96.698s163.643-29.753 223.15-96.698c59.506-59.506 89.259-141.328 89.259-223.15s-29.753-163.643-89.259-223.15c-59.506-59.506-141.328-96.698-223.15-96.698-81.821 7.438-163.643 37.191-223.15 96.698l0 0 0 0z"  horiz-adv-x="1024" />

    
    <glyph glyph-name="pinpai" unicode="&#58981;" d="M394.478963 827.300405C391.915961 824.737333 387.768426 824.736892 385.193931 827.311439L955.293678 257.198627C952.747132 259.745245 952.746778 263.945675 955.259074 266.458024L629.52478-59.283721C632.068308-56.74014 636.205286-56.737298 638.78626-59.318325L68.686495 510.79447C71.264715 508.216196 71.262455 504.076482 68.697529 501.511503L168.767753 601.584004C182.557131 615.373718 182.556884 637.730993 168.76717 651.520388 154.977474 665.309767 132.6202 665.309519 118.830804 651.519806L18.760598 551.447305C-6.240591 526.44555-6.262784 485.871598 18.749564 460.858668L588.849311-109.254126C613.862912-134.26831 654.441348-134.240468 679.461729-109.219522L1005.196023 216.522222C1030.263932 241.590713 1030.260524 282.103949 1005.230627 307.134429L435.13088 877.247241C410.123758 902.254927 369.555862 902.250602 344.542031 877.236189L244.471808 777.163688C230.68243 763.373992 230.682677 741.016717 244.472391 727.227321 258.262087 713.437943 280.619361 713.43819 294.408757 727.227904L394.478963 827.300405ZM209.594386 636.462239C223.383782 622.672543 245.741056 622.672278 259.530752 636.461674 273.320466 650.251052 273.320713 672.608327 259.531317 686.39804L76.309133 869.624426C62.519755 883.414122 40.162481 883.414387 26.372767 869.624991 12.583071 855.835595 12.582806 833.478321 26.372202 819.688625L209.594386 636.462239ZM460.928671 549.546231C460.928671 612.775071 409.672404 664.032503 346.4442 664.032503 283.215996 664.032503 231.959746 612.775071 231.959746 549.546231 231.959746 486.317391 283.215996 435.059959 346.4442 435.059959 409.672404 435.059959 460.928671 486.317391 460.928671 549.546231ZM302.580436 549.546231C302.580436 573.772712 322.219096 593.411814 346.4442 593.411814 370.669321 593.411814 390.307981 573.772712 390.307981 549.546231 390.307981 525.319751 370.669321 505.680649 346.4442 505.680649 322.219096 505.680649 302.580436 525.319751 302.580436 549.546231Z"  horiz-adv-x="1025" />

    
    <glyph glyph-name="congzuocexuanze1" unicode="&#58902;" d="M256.135076 542.611437c0-16.884552 13.814634-30.699186 30.699186-30.699186l2.753717 0c16.884552 0 30.699186 13.814634 30.699186 30.699186L320.287165 673.084001c0 16.884552 13.814634 30.699186 30.699186 30.699186l449.867918 0c16.884552 0 30.699186-13.814634 30.699186-30.699186l0-578.168002c0-16.884552-13.814634-30.699186-30.699186-30.699186L350.986351 64.216813c-16.884552 0-30.699186 13.814634-30.699186 30.699186l0 130.47154c0 16.884552-13.814634 30.699186-30.699186 30.699186l-2.753717 0c-16.884552 0-30.712489-13.814634-30.728862-30.699186l-0.193405-194.428178c-0.017396-16.884552 13.783934-30.699186 30.668487-30.699186l578.210981 0c16.884552 0 30.705326 13.814634 30.711466 30.699186l0.234337 706.081277c0.00614 16.884552-13.804401 30.699186-30.688953 30.699186L286.836309 767.739824c-16.884552 0-30.699186-13.814634-30.699186-30.699186L256.137123 542.611437 256.135076 542.611437zM501.143233 224.517729c11.936867-11.939937 31.470759-11.939937 43.407626 0l137.430022 137.477095c11.935843 11.939937 11.935843 31.479969 0 43.421952l-137.430022 137.475048c-11.936867 11.94096-31.470759 11.94096-43.407626 0l-1.802042-1.803066c-11.936867-11.94096-11.936867-31.480992 0-43.422975l59.842946-59.861366c11.935843-11.941983 7.888667-21.712511-8.995885-21.712511L158.962943 416.091906c-16.884552 0-30.699186-13.814634-30.699186-30.699186l0-3.377934c0-16.884552 13.814634-30.699186 30.699186-30.699186l391.225309 0c16.884552 0 20.931728-9.769504 8.995885-21.711488l-59.842946-59.861366c-11.936867-11.939937-11.936867-31.480992 0-43.422975L501.143233 224.517729z"  horiz-adv-x="1024" />

    
    <glyph glyph-name="wrong" unicode="&#58913;" d="M558.545455 449.815273L163.467636 844.893091A46.266182 46.266182 0 0 1 97.745455 844.8a47.010909 47.010909 0 0 1-0.093091-65.722182L492.730182 384 97.652364-11.07781799999998a47.010909 47.010909 0 0 1 0.093091-65.722182 46.266182 46.266182 0 0 1 65.722181-0.093091L558.545455 318.18472699999995l395.077818-395.077818a46.266182 46.266182 0 0 1 65.722182 0.093091 46.917818 46.917818 0 0 1 0.09309 65.722182L624.360727 384l395.077818 395.077818A47.010909 47.010909 0 0 1 1019.345455 844.8a46.266182 46.266182 0 0 1-65.722182 0.093091L558.545455 449.815273z"  horiz-adv-x="1117" />

    
    <glyph glyph-name="suo" unicode="&#58950;" d="M770.423989 444.690044H368.89432V611.753842c0 80.739434 65.689748 146.429182 146.429182 146.429182S661.738235 692.493276 661.738235 611.753842a43.350032 43.350032 0 0 1 86.700063 0c0 128.547294-104.581952 233.129246-233.122021 233.129246-128.547294 0-233.129246-104.581952-233.129245-233.129246v-167.063798h-21.978466a43.350032 43.350032 0 0 1-43.350032-43.350031v-437.965371a43.350032 43.350032 0 0 1 43.350032-43.350032h510.215423a43.350032 43.350032 0 0 1 43.350032 43.350032V401.340013a43.350032 43.350032 0 0 1-43.350032 43.350031z"  horiz-adv-x="1024" />

    
    <glyph glyph-name="xiaoqu" unicode="&#58932;" d="M223.2064 634.3936h127.36V538.88h-127.36v95.5136z m191.04 0h127.36V538.88h-127.36v95.5136zM223.2064 475.1872h127.36v-95.5136h-127.36v95.5136z m191.04 0h127.36v-95.5136h-127.36v95.5136z m318.4128 0h63.68v-95.5136h-63.68v95.5136z m0-159.1936h63.68v-95.5264h-63.68v95.5264z m-509.4528 0h127.36v-95.5264h-127.36v95.5264z m191.04 0h127.36v-95.5264h-127.36v95.5264z m509.4528-286.5664V602.56h-254.72V793.6H95.8464v-764.1728H64v-63.6928h891.5456V29.44h-31.8464z m-764.1728 0V729.92h445.7728v-700.4928H159.5264z m509.44 0v509.44H860.032v-509.44H668.9792z"  horiz-adv-x="1024" />

    
    <glyph glyph-name="plus-numberfill" unicode="&#59157;" d="M326.336 98.022v243.738c-9.216-8.794-21.286-17.574-36.237-26.355-14.938-8.794-28.365-15.373-40.269-19.763v36.979c21.389 10.061 40.090 22.234 56.102 36.544 16.013 14.31 27.341 28.186 33.997 41.651h24.653v-312.806l-38.246-0zM537.344 213.197c-21.811-17.856-38.502-33.574-50.035-47.181-11.546-13.606-19.955-27.418-25.19-41.434-3.264-8.499-4.749-17.357-4.467-26.56h205.914v36.762h-152.781c4.25 6.938 9.638 13.85 16.154 20.723 6.515 6.874 21.248 19.942 44.198 39.206 27.482 23.232 47.142 41.51 58.97 54.822 11.827 13.312 20.288 25.997 25.382 38.042 5.094 12.032 7.654 24.294 7.654 36.762 0 24.512-8.717 45.056-26.138 61.619s-41.088 24.858-70.976 24.858c-29.606 0-53.197-7.693-70.758-23.053-17.562-15.373-27.699-37.722-30.387-67.046l39.309-4.032c0.141 19.546 5.734 34.854 16.794 45.901s25.792 16.576 44.198 16.576c17.421 0 31.552-5.21 42.406-15.616 10.829-10.406 16.256-23.206 16.256-38.362 0-14.451-5.952-29.786-17.856-46.003-11.904-16.218-34.778-38.221-68.646-65.984zM804.032 124.16c-15.168 0-28.006 4.787-38.566 14.349-10.56 9.562-18.035 25.178-22.426 46.861l-38.246-5.094c2.547-25.92 12.851-47.040 30.925-63.322 18.048-16.294 40.768-24.435 68.096-24.435 30.31 0 55.386 9.459 75.226 28.365s29.76 41.958 29.76 69.158c0 20.109-5.094 36.864-15.296 50.253s-24.512 22.208-42.931 26.458c14.157 6.515 24.858 15.296 32.090 26.355s10.842 23.296 10.842 36.762c0 14.157-3.789 27.546-11.379 40.166-7.578 12.608-18.509 22.554-32.819 29.862-14.31 7.296-29.965 10.944-46.963 10.944-24.653 0-45.261-7.053-61.837-21.146-16.576-14.106-27.2-33.971-31.872-59.61l38.246-6.797c2.842 18.701 9.216 32.73 19.123 42.074s22.31 14.029 37.184 14.029c15.014 0 27.277-4.608 36.762-13.811 9.485-9.216 14.234-20.826 14.234-34.854 0-17.715-6.515-30.81-19.546-39.309s-27.699-12.749-43.994-12.749c-1.562 0-3.61 0.141-6.157 0.422l-4.25-33.574c10.765 2.829 19.763 4.25 26.982 4.25 17.715 0 32.294-5.709 43.776-17.101 11.469-11.405 17.216-25.894 17.216-43.456 0-18.419-6.195-33.869-18.586-46.323-12.403-12.493-27.61-18.726-45.594-18.726zM908.8 793.6v-250.944c0-14.144-11.456-25.6-25.6-25.6v0c-14.144 0-25.6 11.456-25.6 25.6l0 250.944c0 28.275-22.925 51.2-51.2 51.2h-281.6v-307.2c0-28.275-22.925-51.2-51.2-51.2l-307.2-0v-512c0-28.275 22.925-51.2 51.2-51.2l588.8 0c28.275 0 51.2 22.925 51.2 51.2v5.056c0 14.144 11.456 25.6 25.6 25.6v0c14.144 0 25.6-11.456 25.6-25.6l-0-5.056c0-56.32-46.080-102.4-102.4-102.4h-588.8c-56.32 0-102.4 46.080-102.4 102.4l0 512v51.2h0.026l358.413 358.4h332.762c56.32 0 102.4-46.080 102.4-102.4zM473.6 563.2v255.962l-281.562-281.562h255.962c14.144 0 25.6 11.456 25.6 25.6z"  horiz-adv-x="1024" />

    
    <glyph glyph-name="fangwuzhuangtai-zhu" unicode="&#58921;" d="M512 862.656601c-264.355719 0-478.656601-214.300882-478.656601-478.656601s214.300882-478.656601 478.656601-478.656601 478.656601 214.300882 478.656601 478.656601-214.300882 478.656601-478.656601 478.656601z m-140.800903-707.743456c-1.463064-18.893389-12.383659-29.098709-32.743724-30.565385-21.830353 1.466676-33.495125 11.668384-34.929288 30.565385v224.856614c-17.462838-16.035899-32.743724-16.747562-45.842659-2.185564-11.664771 15.996162-11.664771 34.929288 0 56.759642 36.359839 58.190193 63.309109 117.135398 80.771947 176.824779 7.268355 24.731193 24.012305 34.929288 50.210174 30.565385 20.363677-8.735031 26.913145-26.197869 19.64479-52.395738-1.466676-2.933352-7.300868-18.214238-17.462838-45.842659-10.198095-29.127609-16.751175-48.028223-19.648402-56.759641v-331.822818z m373.305186-15.280886h-325.276963c-18.929514 1.466676-29.127609 12.383659-30.561773 32.743724 1.430551 20.363677 11.632259 31.277048 30.561773 32.743723h124.432653v117.886799H430.14069c-18.929514 1.430551-29.127609 13.095322-30.561772 34.925676 1.430551 21.833966 11.632259 33.466225 30.561772 34.929288h113.519283V497.649333h-115.701235c-18.929514 1.430551-28.376208 13.098935-28.376208 34.929288 0 20.36729 9.446694 31.28066 28.376208 32.743724h133.167685c-5.830579 7.268355-11.664771 16.71505-17.46645 28.379821-10.194482 17.462838-8.016143 31.992323 6.549467 43.660707 17.46645 10.16197 33.462612 7.983631 48.028223-6.549467 13.098935-13.098935 21.830353-26.197869 26.194257-39.296804 2.90084-10.198095 2.185564-18.929514-2.181952-26.197869h106.969816c21.830353-1.463064 33.459-12.380047 34.925676-32.743724-1.466676-21.830353-13.095322-33.495125-34.925676-34.929288h-113.522896v-104.787865h109.15538c18.893389-1.463064 29.098709-13.095322 30.561773-34.929288-1.463064-21.830353-11.664771-33.491512-30.561773-34.925675h-109.15538v-117.886799h128.80017c18.897001-1.466676 29.095096-12.383659 30.561772-32.743724-1.459451-20.356452-11.657546-31.273435-30.554547-32.740111z"  horiz-adv-x="1024" />

    
    <glyph glyph-name="77" unicode="&#59044;" d="M491.52 819.2h37.888v-111.616l53.76-66.56 74.24-91.648h-296.96l130.56 161.28v108.544h0.512zM289.792 9.728h59.392v503.808h323.072v-504.32h57.856v400.384h140.288v-399.872h93.184v-71.168h-880.128v603.648l206.336-118.272v-414.208zM521.728 153.088v-55.808h44.544v55.808h-44.544zM112.128 238.080v-33.792h27.136v33.792h-27.136zM242.176 178.688v-33.792h27.136v33.792h-27.136zM242.176 298.496v-33.792h27.136v33.792h-27.136zM242.176 357.888v-33.792h27.136v33.792h-27.136zM199.168 238.080v-33.792h27.136v33.792h-27.136zM199.168 357.888v-33.792h27.136v33.792h-27.136zM154.624 238.080v-33.792h27.136v33.792h-27.136zM154.624 178.688v-33.792h27.136v33.792h-27.136zM154.624 298.496v-33.792h27.136v33.792h-27.136zM112.128 357.888v-33.792h27.136v33.792h-27.136zM754.176 227.84v-41.984h33.792v41.984h-33.792zM754.176 154.624v-41.984h33.792v41.984h-33.792zM754.176 376.832v-41.984h33.792v41.984h-33.792zM806.912 303.616v-41.984h33.28v41.984h-33.28zM806.912 376.832v-41.984h33.28v41.984h-33.28zM385.536 153.088v-55.808h44.544v55.808h-44.544zM385.536 351.744v-55.808h44.544v55.808h-44.544zM588.8 351.744v-55.808h44.544v55.808h-44.544zM521.728 351.744v-55.808h44.544v55.808h-44.544zM454.656 351.744v-55.808h44.544v55.808h-44.544zM385.536 449.536v-55.808h44.544v55.808h-44.544zM588.8 449.536v-55.808h44.544v55.808h-44.544zM521.728 449.536v-55.808h44.544v55.808h-44.544zM385.536 250.88v-55.808h44.544v55.808h-44.544zM588.8 250.88v-55.808h44.544v55.808h-44.544z"  horiz-adv-x="1024" />

    
    <glyph glyph-name="export" unicode="&#58933;" d="M853.333 213.333v-170.667h-682.667v170.667h-170.667v-341.333h1024v341.333zM870.4 469.333l-119.467 119.467-153.6-153.6v460.8h-170.667v-460.8l-153.6 153.6-119.467-119.467 358.4-358.4z"  horiz-adv-x="1024" />

    
    <glyph glyph-name="funnel" unicode="&#58934;" d="M892.033401 834.7512830000001c0-12.66778-6.33389-25.33556-12.66778-38.00334v-6.33389l-240.687821-316.694501c-12.66778-12.66778-19.00167-31.66945-19.00167-57.00501v-544.714542l-202.68448 152.013361v392.701181c0 19.00167 0 44.33723-12.66778 57.00501l-253.355601 310.360611s0 6.33389-6.33389 6.33389c-6.33389 12.66778-12.66778 25.33556-12.66778 38.00334 0 31.66945 25.33556 57.00501 57.00501 57.005011h652.390672c25.33556 12.66778 50.67112-19.00167 50.67112-50.671121"  horiz-adv-x="1024" />

    
    <glyph glyph-name="suo1" unicode="&#58948;" d="M809.6 479.36h-53.76V587.52c0 135.68-108.096 243.84-243.2 243.84-135.04 0-243.2-108.16-243.2-243.84v-108.16h-53.76c-29.44 0-53.76-24.32-53.76-53.76v-433.28c0-29.44 24.32-53.76 53.76-53.76h593.92c30.08 0 54.4 24.32 54.4 53.76V425.6c0 29.44-24.32 53.76-54.4 53.76z m-135.04 0H350.72V587.52c0 89.6 72.96 162.56 161.92 162.56a162.56 162.56 0 0 0 161.92-162.56v-108.16z"  horiz-adv-x="1024" />

    
    <glyph glyph-name="nianling" unicode="&#58899;" d="M649.537829 813.114514c0 12.785371 10.298514 23.1424 22.849828 23.1424h45.787429c12.580571 0 22.820571-10.357029 22.820571-23.1424v-47.133257a22.996114 22.996114 0 0 0-22.820571-23.083886h-45.787429a22.996114 22.996114 0 0 0-22.849828 23.083886V813.114514zM466.417371 813.114514c0 12.785371 10.269257 23.1424 22.966858 23.1424h45.758171c12.639086 0 22.849829-10.357029 22.849829-23.1424v-47.133257c0-12.756114-10.24-23.083886-22.849829-23.083886h-45.758171a23.025371 23.025371 0 0 0-22.966858 23.083886V813.114514zM283.413943 813.114514c0 12.785371 10.24 23.1424 22.908343 23.1424h45.787428c12.609829 0 22.879086-10.357029 22.879086-23.1424v-47.133257a22.996114 22.996114 0 0 0-22.879086-23.083886H306.322286a22.966857 22.966857 0 0 0-22.908343 23.083886V813.114514zM100.7616 488.711314c0 25.6 16.208457 65.184914 68.608 69.485715l114.015086 0.351085V697.197714h91.574857v-138.6496h91.662628V697.197714h91.5456v-138.6496h91.457829V697.197714h91.487086v-138.6496l114.746514-0.351085c25.307429 0 67.262171-32.299886 68.637257-69.485715v-96.958171a197.953829 197.953829 0 0 1-53.0432 6.7584c-58.250971 0-90.170514-14.1312-115.185371-30.339657-20.245943-13.1072-33.5872-19.573029-65.1264-19.573029-31.451429 0-44.821943 8.630857-65.097143 21.796572-24.9856 16.149943-56.144457 48.683886-114.424686 48.683885-58.1632 0-89.351314-32.533943-114.307657-48.683885-20.304457-13.165714-33.616457-21.796571-65.1264-21.796572-31.480686 0-44.821943 8.630857-65.009371 21.796572-25.073371 16.149943-56.1152 27.823543-114.395429 27.823542-20.714057 0-38.005029-2.633143-52.750629-6.699885l0.731429 97.192228zM978.183314-68.256914H45.6704c-25.161143 0-45.6704 20.743314-45.6704 46.2848 0 25.6 20.509257 46.343314 45.6704 46.343314h54.447543V300.032c14.423771 8.660114 27.969829 14.072686 52.750628 14.072686 31.480686 0 44.8512-8.777143 65.009372-21.855086 25.044114-16.208457 56.1152-36.278857 114.395428-36.278857 72.9088 0 100.7616 70.334171 179.4048 70.334171 79.403886 0 106.642286-70.334171 179.492572-70.334171 58.250971 0 89.468343 20.099657 114.424686 36.278857 20.2752 13.077943 34.4064 21.855086 65.857828 21.855086 24.868571 0 38.385371-5.500343 53.0432-14.277486v-275.456h53.6576c25.307429 0 45.816686-20.743314 45.816686-46.343314 0.029257-25.541486-20.48-46.2848-45.787429-46.2848z"  horiz-adv-x="1024" />

    
    <glyph glyph-name="xingbie" unicode="&#58904;" d="M398.072686 723.733943c0 80.808229-65.7408 146.549029-146.549029 146.549028s-146.578286-65.7408-146.578286-146.549028 65.7408-146.549029 146.549029-146.549029 146.578286 65.7408 146.578286 146.549029zM175.776914 565.248C69.4272 531.514514 0 428.8512 0 317.293714v-176.917943c0-8.689371 7.109486-15.798857 15.798857-15.798857h85.050514v-213.664914c0-7.285029 5.909943-13.194971 13.194972-13.194971h276.0704a13.194971 13.194971 0 0 1 13.194971 13.194971v213.664914h65.653029c19.368229 0 35.196343 15.828114 35.196343 35.167086v173.173029c-0.029257 159.714743-165.127314 284.145371-328.382172 232.330971zM935.467886 674.874514c0 80.808229-65.770057 146.549029-146.578286 146.549029s-146.578286-65.7408-146.578286-146.549029 65.770057-146.549029 146.578286-146.549028 146.578286 65.7408 146.578286 146.549028zM1022.537143 100.498286l-74.049829 290.991543c-16.062171 79.2576-87.04 136.835657-168.7552 136.835657s-152.693029-57.578057-168.170057-134.144L536.927086 100.498286a48.713143 48.713143 0 0 1 8.6016-41.486629c9.0112-11.819886 22.908343-18.870857 37.770971-19.192686 0 0 36.366629-0.760686 65.097143-0.877714 9.216-27.677257 23.025371-68.4032 35.488914-107.900343a47.747657 47.747657 0 0 1 45.553372-33.294628h100.9664c20.626286 0 38.941257 13.341257 45.143771 33.031314 12.522057 39.614171 26.360686 81.539657 35.664457 109.275429 28.672 0.117029 65.038629 0.351086 65.038629 0.351085a48.274286 48.274286 0 0 1 46.2848 60.094172z"  horiz-adv-x="1024" />

    
    <glyph glyph-name="record" unicode="&#59029;" d="M512 384m-224 0a224 224 0 1 1 448 0 224 224 0 1 1-448 0Z"  horiz-adv-x="1024" />

    
    <glyph glyph-name="shuijue" unicode="&#59099;" d="M487.344 383.796a17.314 17.314 0 0 1-24.286 3.066c-16.566-12.854-48.222-21.16-80.64-21.16-33.214 0-64.44 8.152-79.552 20.77a17.31 17.31 0 0 1-22.188-26.572c21.61-18.044 59.644-28.816 101.738-28.816 40.838 0 78.918 10.626 101.862 28.426a17.308 17.308 0 0 1 3.066 24.286zM787.604 383.796a17.314 17.314 0 0 1-24.286 3.066c-16.566-12.854-48.22-21.16-80.64-21.16-33.212 0-64.438 8.152-79.55 20.77a17.31 17.31 0 0 1-22.188-26.572c21.61-18.044 59.644-28.816 101.736-28.816 40.838-0.002 78.918 10.626 101.862 28.426 7.552 5.86 8.926 16.736 3.066 24.286zM528.46 226.798c-48.676 0-88.276-39.6-88.276-88.276 0-48.676 39.6-88.274 88.276-88.274s88.276 39.598 88.276 88.274-39.6 88.276-88.276 88.276z m0-141.93c-29.586 0-53.656 24.07-53.656 53.654 0 29.586 24.068 53.656 53.656 53.656 29.586 0 53.656-24.07 53.656-53.656 0-29.584-24.07-53.654-53.656-53.654zM614.17 505.62c-4.14 8.618-14.48 12.254-23.096 8.118l-29.944-14.37 19.944 57.736a17.308 17.308 0 0 1-24.478 20.94L481.2 538.04a17.312 17.312 0 0 1 16.23-30.582L534 526.862l-19.134-55.394a17.308 17.308 0 0 1 23.85-21.256l67.334 32.312a17.312 17.312 0 0 1 8.12 23.096zM761.63 691.276a17.366 17.366 0 0 1-2.276 2.412c-3.6 3.086-13.234 5.46-19.366 2.142l-107.052-56.802a17.31 17.31 0 0 1-7.176-23.406c4.478-8.44 14.958-11.662 23.406-7.176l68.226 36.204-33.192-96.096a17.31 17.31 0 0 1 24.026-21.172l95.672 47.258c30.758-58.116 47.104-123.218 47.104-190.64 0-225.076-183.112-408.188-408.188-408.188S34.62 158.922 34.62 383.998 217.734 792.19 442.81 792.19c51.89 0 102.446-9.602 150.25-28.536a17.3 17.3 0 0 1 22.466 9.718 17.306 17.306 0 0 1-9.718 22.466c-51.882 20.55-106.722 30.972-162.998 30.972C198.642 826.81 0 628.166 0 383.998c0-244.166 198.642-442.808 442.81-442.808 244.166 0 442.808 198.642 442.808 442.808 0 115.294-44.028 224.34-123.988 307.278z m-30.948-114.192l24.194 70.05a409.22 409.22 0 0 0 31.482-42.546l-55.676-27.504zM1022.292 696.038c-4.138 8.62-14.482 12.248-23.096 8.118l-83.632-40.136 46.64 135.036a17.302 17.302 0 0 1-5.108 18.8 17.318 17.318 0 0 1-19.368 2.14l-135.516-71.906a17.31 17.31 0 0 1 16.23-30.582l96.694 51.304-45.832-132.694a17.308 17.308 0 0 1 23.85-21.256l121.026 58.078c8.612 4.14 12.248 14.48 8.112 23.098zM658.356 751.588m-17.31 0a17.31 17.31 0 1 1 34.62 0 17.31 17.31 0 1 1-34.62 0Z"  horiz-adv-x="1024" />

    
    <glyph glyph-name="loading" unicode="&#58959;" d="M476.16 793.6h71.68v-204.8h-71.68V793.6zM685.76 756.64l62.077-35.84-102.4-177.362-62.076 35.84 102.4 177.362zM848.8 619.832l35.84-62.077-177.362-102.4-35.84 62.077 177.362 102.4zM921.6 419.84v-71.68H716.8v71.68h204.8zM884.64 210.236L848.8 148.15999999999997l-177.362 102.4 35.84 62.077 177.362-102.4zM747.853 47.200000000000045l-62.077-35.84-102.4 177.362 62.077 35.84 102.4-177.362zM547.84-25.600000000000023h-71.68V179.20000000000005h71.68v-204.8zM338.224 11.360000000000014l-62.077 35.84 102.4 177.362 62.077-35.84-102.4-177.362zM175.2 148.15999999999997l-35.84 62.076 177.362 102.4 35.84-62.077L175.2 148.15999999999997zM102.4 348.15999999999997v71.68h204.8v-71.68H102.4zM139.36 557.755l35.84 62.077 177.362-102.4-35.84-62.077-177.362 102.4zM276.163 720.8l62.076 35.84 102.4-177.362-62.076-35.84-102.4 177.362z"  horiz-adv-x="1024" />

    
    <glyph glyph-name="qushi1" unicode="&#59054;" d="M48 138.24h173.76V-80H48V138.24z m264.16 224h178.08V-80H312.8z m264.16-85.12h176V-80h-176z m264.64 216h177.44V-80H840.96V493.12zM0.96 354.56L412.32 732.8l236-232L871.2 760.16 790.4 845.12h228V624l-80 82.08-290.4-352-238.24 246.4-352-327.2z"  horiz-adv-x="1024" />

    
    <glyph glyph-name="paperClip" unicode="&#58979;" d="M904.822269 819.475617c25.291957-25.291957 42.801773-53.177961 53.177961-83.009499 10.376187-29.831539 14.267258-60.31159 12.321722-90.79164-1.945535-31.128562-10.376187-60.960101-25.291957-90.791641-14.267258-29.831539-34.371121-57.069031-59.663078-82.360988l-292.478784-291.830272c-0.648512-0.648512-4.539582-4.539582-11.67321-12.321723-7.133629-7.133629-14.915769-14.915769-23.994934-23.346421-10.376187-9.727676-22.049398-20.752375-34.371121-33.72261-24.643445-25.291957-48.638379-42.153262-72.633312-50.583914-23.994934-8.430652-46.044332-12.321723-66.796707-11.024699-20.752375 1.297023-40.207726 7.133629-57.717543 16.861305s-31.777074 20.103863-42.801773 32.425586c-13.618746 14.915769-25.940469 31.128562-35.019633 48.638378-9.727676 17.509816-14.915769 36.316656-16.212793 57.069031-0.648512 20.103863 3.242559 42.153262 13.618747 64.851172 9.727676 23.346422 27.237492 47.341355 52.529449 72.633312l326.849905 328.79544c6.485117 6.485117 15.564281 7.782141 27.886003 3.891071s21.400887-8.430652 27.886004-14.91577c6.485117-6.485117 11.024699-15.564281 14.267258-27.886004 3.242559-12.321723 1.297023-21.400887-4.539582-27.886003l-326.849905-327.498417c-12.321723-12.321723-20.103863-28.534516-23.346422-48.638379-2.594047-20.103863 3.242559-37.61368 18.80684-53.17796 12.321723-12.970234 28.534516-19.455351 47.989867-19.455352 19.455351-0.648512 37.61368 7.133629 53.177961 23.346422l360.572514 361.221026c37.61368 37.61368 57.717543 75.227359 59.663078 112.841038s-11.673211 71.336289-40.856238 101.81634c-16.212793 16.212793-33.074098 29.183027-51.880938 38.262191-18.80684 9.079164-38.262191 14.267258-57.717542 14.267258-20.103863 0.648512-40.207726-3.242559-60.31159-11.024699-20.103863-7.782141-39.559215-21.400887-59.014566-40.207727l-398.186194-400.131729c-18.80684-18.80684-33.722609-41.50475-45.39582-68.09373-11.024699-26.58898-18.158328-54.474984-19.455352-84.306523-1.945535-29.183027 1.945535-59.014566 12.321723-88.846105 9.727676-29.831539 27.237492-57.069031 51.232426-81.712476 27.237492-27.237492 55.123496-46.692844 84.306523-57.069031 29.183027-10.376187 58.366054-14.915769 86.90057-12.970235 28.534516 1.945535 55.772008 9.079164 80.415452 21.400887 25.291957 12.321723 47.341355 27.886004 66.148196 47.341355l353.438885 354.735909c6.485117 6.485117 15.564281 7.782141 27.886004 3.89107s21.400887-8.430652 27.886004-13.618746c6.485117-6.485117 11.024699-15.564281 14.267257-27.886004 3.242559-12.321723 1.297023-21.400887-4.539582-27.886003l-354.087397-356.032933c-25.291957-25.291957-55.772008-46.044332-92.088664-62.257124s-75.227359-25.940469-116.083597-28.534516c-40.856238-2.594047-82.360988 3.242559-123.865738 17.509816-41.50475 14.267258-79.766941 39.559215-115.435085 75.22736-36.316656 36.965168-60.960101 76.524383-74.578847 119.326155-13.618746 42.801773-18.80684 84.955035-16.212793 125.811273 3.242559 40.856238 12.970234 79.766941 29.831539 116.732109 16.861305 36.965168 38.262191 67.445218 62.905636 92.737176l399.483217 400.78024c25.291957 25.291957 53.177961 43.450285 84.306523 55.772008 31.128562 12.321723 62.905636 18.158328 95.979734 18.158328 33.074098 0 64.851172-6.485117 95.331223-18.80684 28.534516-13.618746 56.420519-32.425586 81.712476-57.717543z"  horiz-adv-x="1024" />

    
    <glyph glyph-name="zuocedianji" unicode="&#58949;" d="M65.4 555.6l2.8 0.2s142.9 1.2 256.3 1.2h34.1c48.9-0.2 80.9-0.6 95.1-1.3 13.3-0.7 23 1.4 25.1 5.4 0.7 1.3 6.6 14.3-19.1 57.3-21.8 36.4-27 83.9-13.4 120.9 9.9 27.1 29.1 46.6 53.9 54.9 11.2 3.9 21.8 5.7 32.3 5.7 52 0 93.7-43.7 139.5-146.3 49.2-110.2 197.5-166.4 199-167l11.6-4.3v-392.6l-8-5.2c-3.2-2.2-81.3-53-212.2-85.9-49.4-12.5-104.8-18.7-164.7-18.7-56.4 0-107.6 5.9-139.1 12.9-8.4 1.9-15.4 3.9-20.7 5.8-15 5.6-26.1 16.2-32 30.7-9.7 24-3.6 54.4 3.3 75.8-29.7 2.6-50.6 14.6-59.3 34.5-14.2 31.7-9.7 66-4.4 87-24.7 8-53 27.6-53.4 66.6-0.3 27.2 4.9 46.9 12.1 61.1H96.8C34.6 354.3 0.2 412.1 0.2 452c0 91.2 62.5 103.1 65.2 103.6zM96.7 390l132.4-0.1v0.1h229.6v-0.7c0.3 0 0.6 0.2 0.9 0.2 9.6 0 17.5-7.9 17.5-17.6s-7.8-17.5-17.5-17.5c-0.4 0-0.7 0.2-0.9 0.2v-0.2H250.1c-5.5-2.7-23.3-15.2-22.8-60.7 0.2-15.4 9.5-24.3 19.4-29.3v1.1h212v-0.7c0.3 0 0.6 0.2 0.9 0.2 9.6 0 17.5-7.9 17.5-17.6 0-9.6-7.8-17.5-17.5-17.5-0.4 0-0.7 0.2-0.9 0.2v-0.2H283.2c-3.7-10.4-14.5-45.9-1.2-75.7 4.9-11 60.1-12.8 76.5-13.2 2.8-0.1 4.6-0.1 4.6-0.1h95.5v-0.7c0.3 0 0.6 0.2 0.9 0.2 9.6 0 17.5-7.8 17.5-17.5s-7.8-17.5-17.5-17.5c-0.4 0-0.7 0.2-0.9 0.2v-0.2h-112c-7.5-19.4-14.4-47.2-8.2-62.6 2.2-5.4 5.7-8.6 11.4-10.7 2.3-0.9 5.2-1.8 8.6-2.6 24.6-6.5 77-14 139.1-14 56.2 0 110.2 6.1 156.1 17.7 101.6 25.6 170.8 63 193.5 76.3V457.9C808.7 474.2 687 533 639.6 639c-50.2 112.3-85.3 125.4-107.3 125.4-6.6 0-13.5-1.3-21.1-3.8-18.4-6.2-27.5-21.6-31.9-33.5-10-27.4-5.9-62.8 10.6-90.3 24.9-41.8 31.3-72.3 19.6-93.2-9.6-17-28.4-24.9-57.7-23.4-13.7 0.7-45 1.1-93.3 1.3h-34.1c-105.5 0-236.5-1.1-254.1-1.2-7-1.9-35.1-13.3-35.1-68.1 0.3-18.4 17.9-62.2 61.5-62.2z m869.9 124.4c-26.8 0-48.6-21.9-48.6-48.9V101c0-27 21.7-48.9 48.6-48.9h8.8c11 0 21.1 3.7 29.2 9.9 11.7 8.9 19.4 23 19.4 39V465.5c0 16-7.6 30.1-19.4 39.1-8.1 6.1-18.2 9.8-29.2 9.8h-8.8z"  horiz-adv-x="1024" />

    
    <glyph glyph-name="bangzhu" unicode="&#58900;" d="M460.928 77.12H563.2v102.272H460.928v-102.272zM512 895.488A511.68 511.68 0 0 1 0.576 384c0-282.368 229.12-511.488 511.488-511.488s511.488 229.12 511.488 511.488A511.808 511.808 0 0 1 512 895.488z m0-920.768c-225.536 0-409.216 183.744-409.216 409.28A409.792 409.792 0 0 0 512 793.216 409.792 409.792 0 0 0 921.216 384c0.064-225.472-183.68-409.28-409.216-409.28z m0 716.16a204.608 204.608 0 0 1-204.608-204.608h102.336c0 56.256 46.08 102.336 102.272 102.336s102.272-46.016 102.272-102.336C614.336 384 460.928 396.8 460.928 230.52800000000002H563.2c0 115.136 153.472 127.936 153.472 255.808A204.608 204.608 0 0 1 512 690.88z"  horiz-adv-x="1024" />

    
    <glyph glyph-name="shangchuan" unicode="&#58980;" d="M586.752 491.52V764.928c0 41.472-33.28 74.752-74.752 74.752s-74.752-33.28-74.752-74.752V491.52L288.256 641.024l-107.52-116.224 331.264-339.456 331.264 339.456-107.52 116.224L586.752 491.52zM263.68-69.12h497.152c49.664 0 82.944 33.28 82.944 82.944s-33.28 82.944-82.944 82.944H263.68c-49.664 0-82.944-33.28-82.944-82.944s32.768-82.944 82.944-82.944z"  horiz-adv-x="1024" />

    
    <glyph glyph-name="database" unicode="&#59496;" d="M512 457.142857q135.428571 0 253.142857 24.571429t185.714286 72.571428v-97.142857q0-39.428571-58.857143-73.142857t-160-53.428571-220-19.714286-220 19.714286T132 384 73.142857 457.142857V554.285714q68-48 185.714286-72.571428t253.142857-24.571429z m0-438.857143q135.428571 0 253.142857 24.571429t185.714286 72.571428v-97.142857q0-39.428571-58.857143-73.142857t-160-53.428571-220-19.714286-220 19.714286-160 53.428571-58.857143 73.142857v97.142857q68-48 185.714286-72.571428t253.142857-24.571429z m0 219.428572q135.428571 0 253.142857 24.571428t185.714286 72.571429v-97.142857q0-39.428571-58.857143-73.142857t-160-53.428572-220-19.714286-220 19.714286-160 53.428572-58.857143 73.142857V334.857143q68-48 185.714286-72.571429t253.142857-24.571428zM512 896q118.857143 0 220-19.714286t160-53.428571 58.857143-73.142857v-73.142857q0-39.428571-58.857143-73.142858t-160-53.428571T512 530.285714t-220 19.714286T132 603.428571 73.142857 676.571429V749.714286q0 39.428571 58.857143 73.142857t160 53.428571T512 896z"  horiz-adv-x="1024" />

    
    <glyph glyph-name="fugaishuai" unicode="&#58884;" d="M513.024 664.576c-162.816 0-294.912-132.096-294.912-294.912 0-124.928 75.264-229.888 184.32-272.896h0.512c2.56-1.536 5.632-2.56 8.704-2.56 10.24 0 17.92 8.192 17.92 17.92 0 9.216-6.656 16.384-15.36 17.92-94.208 38.912-160.256 131.072-160.256 239.104 0 142.848 115.712 258.56 258.56 258.56s258.56-115.712 258.56-258.56c0-108.544-67.072-201.728-161.792-240.128-9.216-1.024-15.872-8.704-15.872-17.92 0-10.24 8.192-17.92 17.92-17.92 2.048 0 3.584 0.512 5.12 1.024 0.512 0 0.512 0.512 1.024 0.512s1.024 0.512 1.536 0.512c109.568 43.008 188.416 149.504 188.416 274.432 0.512 163.328-131.584 294.912-294.4 294.912zM513.024 379.392m-142.336 0a142.336 142.336 0 1 1 284.672 0 142.336 142.336 0 1 1-284.672 0ZM527.36 189.44c-3.072 6.144-8.192 9.728-14.336 9.728-6.656 0-11.776-4.096-14.848-10.752 0 0 1.024 1.536 0 0l-61.44-124.928c-1.536-2.048-2.56-4.608-3.584-7.168-0.512-2.048-1.024-4.096-1.024-6.144 0-10.752 7.68-19.456 16.896-19.456h126.976c9.216 0 16.896 8.704 16.896 19.456 0 4.096-1.024 8.192-3.072 11.264L527.36 189.44z m0.512-1.536c0.512-0.512 0.512-1.024 0.512-1.024 0 0.512 0 1.024-0.512 1.024z"  horiz-adv-x="1024" />

    
    <glyph glyph-name="circle-question" unicode="&#59005;" d="M563.2 135.02171399999997a50.761143 50.761143 0 1 0-101.741714 0c0 28.16 22.454857 50.614857 50.541714 50.614857 28.086857 0 51.2-22.454857 51.2-50.614857z m85.796571 502.418286c33.865143-30.72 51.2-67.803429 51.2-111.981714 0-25.6-6.363429-48.64-17.92-70.509715-12.214857-21.065143-35.254857-47.250286-69.778285-77.970285-23.698286-20.48-39.058286-35.84-46.08-45.494857a119.222857 119.222857 0 0 1-16.018286-33.865143c-3.218286-12.8-5.12-19.821714-5.778286-48.566857a34.889143 34.889143 0 0 0-34.523428-32.694858 34.450286 34.450286 0 0 0-34.596572 34.596572l0.658286 3.876571c-0.658286 7.021714 0 40.228571 11.556571 74.825143 5.12 15.36 15.36 30.72 28.233143 46.738286 9.508571 10.825143 26.916571 28.16 51.126857 49.883428 25.014857 21.796571 40.96 38.985143 48.64 51.931429 7.094857 12.726857 10.898286 26.843429 10.898286 42.130286 0 28.233143-10.898286 52.516571-32.694857 73.581714-21.796571 21.211429-47.981714 31.451429-80.018286 31.451429-29.988571 0-55.588571-9.654857-76.068571-28.233143-19.894857-19.236571-33.28-49.225143-39.716572-89.6h-0.731428a36.278857 36.278857 0 0 0-36.352-32.036572 36.425143 36.425143 0 0 0-36.571429 36.571429l0.658286 4.388571h-0.658286c6.436571 53.833143 26.331429 95.451429 58.88 124.196572 32.621714 28.818286 76.141714 43.52 129.901715 43.52 56.32 0 101.741714-15.36 135.753142-46.738286zM512-59.53828599999997A444.050286 444.050286 0 0 0 68.461714 384 444.123429 444.123429 0 0 0 512 827.538286 444.123429 444.123429 0 0 0 955.538286 384 444.050286 444.050286 0 0 0 512-59.53828599999997zM512 896C229.083429 896 0 666.916571 0 384s229.083429-512 512-512 512 229.083429 512 512-229.083429 512-512 512z"  horiz-adv-x="1024" />

    
    <glyph glyph-name="xiaohai1" unicode="&#58882;" d="M710.302415 401.936511c9.648754-9.864672 15.638165-23.607674 15.638165-38.803771 0-30.010501-23.352871-54.351885-52.143591-54.351885-28.789697 0-52.143591 24.341385-52.143591 54.351885 0 30.009478 23.352871 54.350862 52.143591 54.350862C688.010713 417.483602 700.895161 411.551496 710.302415 401.936511L710.302415 401.936511zM399.60107 401.936511c9.650801-9.864672 15.638165-23.607674 15.638165-38.803771 0-30.010501-23.352871-54.351885-52.144614-54.351885-28.79072 0-52.143591 24.341385-52.143591 54.351885 0 30.009478 23.352871 54.350862 52.143591 54.350862C377.306298 417.483602 390.193817 411.551496 399.60107 401.936511L399.60107 401.936511zM908.314211 368.211409c-3.071965 77.314877-28.625968 150.971433-74.226538 213.632565-6.354731 8.732895-18.594497 10.666944-27.339672 4.319375-8.744151-6.346545-10.679223-18.569938-4.326539-27.303856 42.915415-58.973136 66.095347-128.774899 67.032696-201.859427l0.143263-11.259438 9.82374-5.523807c25.399483-14.282285 41.177841-41.211611 41.177841-70.2776 0-21.366633-8.287757-41.497113-23.337521-56.681954-15.037485-15.173584-35.084053-23.659863-56.444547-23.895223l-11.264555-0.12382-5.551436-9.790994c-30.195719-53.256948-73.994248-97.966219-126.660748-129.298831-54.205553-32.249495-116.400057-49.295729-179.860391-49.295729-128.533398 0-246.849084 69.977771-308.772412 182.623317l-6.108115 11.112082-12.649088-1.038656c-2.249227-0.184195-4.500501-0.277316-6.689353-0.277316-44.4954 0-80.693834 36.152385-80.693834 80.589456 0 33.216519 19.964704 62.6202 50.861388 74.907037l11.827373 4.702092 0.490164 12.70537c3.505847 90.976014 41.651632 175.960571 107.411335 239.299131 65.931618 63.504336 152.699798 98.476849 244.324588 98.476849 13.066597 0 26.233478-0.722454 39.134299-2.146896 10.745738-1.186012 20.415982 6.55223 21.603017 17.282618 1.188058 10.729365-6.558369 20.388353-17.303085 21.575388-14.323217 1.582031-28.937053 2.38328-43.435255 2.38328-101.812827 0-198.23283-38.863123-271.497461-109.431342-70.160943-67.579141-112.033609-157.351748-118.706589-253.905804-17.012466-8.968256-31.606859-21.893636-42.672892-37.892005-13.856589-20.033265-21.181415-43.531446-21.181415-67.956741 0-65.023946 52.185546-118.101815 116.927059-119.650077C250.600525 35.19687299999998 378.676505-38.240696999999955 517.479805-38.240696999999955c70.50989 0 139.632177 18.950607 199.894679 54.80214 55.420217 32.970926 102.002139 79.282694 135.270846 134.366244 27.412326 2.879584 52.79953 15.013949 72.436776 34.827203 22.351054 22.552645 34.660404 52.449559 34.660404 84.183308C959.743534 309.277158 940.2956 345.96882500000004 908.314211 368.211409L908.314211 368.211409zM286.46843 250.10959400000002c-9.66615-4.833075-13.577227-16.576537-8.736988-26.229384 21.402449-42.685171 54.119595-78.724992 94.616938-104.226806 41.641399-26.222221 89.787956-40.082904 139.236158-40.082904 46.912449 0 92.933599 12.562107 133.085064 36.325323 38.963407 23.061228 71.445192 55.997362 93.934392 95.249341 2.388397 4.168949 4.689812 8.454556 6.836709 12.737092 4.839215 9.651824 0.926092 21.396309-8.739035 26.230408-9.66615 4.830005-21.423939 0.926092-26.264177-8.727779-1.824555-3.637854-3.777023-7.2798-5.809309-10.82351-19.130709-33.393551-46.766117-61.412698-79.916121-81.033571-34.113959-20.190855-73.233931-30.863938-113.128547-30.863938-42.049698 0-82.977853 11.777231-118.359688 34.0587-34.45472 21.697161-62.288648 52.356438-80.493266 88.662319C307.892369 251.03670899999997 296.131511 254.94369200000006 286.46843 250.10959400000002L286.46843 250.10959400000002zM643.213437 597.7942479999999c-21.502733 0.001023-43.016723 8.113795-59.482743 24.364921-7.687076 7.589862-20.082384 7.516184-27.677363-0.163729-7.599072-7.677866-7.525394-20.052708 0.162706-27.64257 24.083511-23.772426 55.54506-35.635615 86.995353-35.635615 31.939433 0 63.86761 12.236696 88.037079 36.661991 23.240307 23.483854 35.932374 54.600549 35.737946 87.618547-0.193405 33.016974-13.251815 63.98222-36.765345 87.191828-22.732747 22.440082-52.848649 35.108612-84.798315 35.673477-10.778484 0.157589-19.724227-8.404414-19.914562-19.198248-0.192382-10.793834 8.41567-19.697621 19.222807-19.890003 21.840424-0.385786 42.430368-9.048073 57.974389-24.391527 16.078187-15.868409 25.004487-37.040614 25.137517-59.615773 0.134053-22.576181-8.544607-43.850717-24.433482-59.907415C686.879959 606.158752 665.055908 597.793224 643.213437 597.7942479999999L643.213437 597.7942479999999zM373.7411 360.26236600000004M334.596568 360.26236600000004M647.694495 360.26236600000004M608.550986 360.26236600000004"  horiz-adv-x="1024" />

    
    <glyph glyph-name="shengfen" unicode="&#58892;" d="M512-107.52512c-271.0272 0-491.52512 220.4928-491.52512 491.52512C20.47488 655.0272 240.9728 875.52512 512 875.52512c271.03232 0 491.52512-220.49792 491.52512-491.52512 0-271.03232-220.4928-491.52512-491.52512-491.52512z m0 911.37024c-231.5008 0-419.84512-188.34432-419.84512-419.84512 0-231.50592 188.34432-419.84512 419.84512-419.84512 231.50592 0 419.84512 188.3392 419.84512 419.84512 0 231.5008-188.3392 419.84512-419.84512 419.84512zM761.06752 565.85728v-0.10752c5.14048-1.48992 9.84064 4.09088 12.82048 7.07584 2.53952 4.52608 10.21952 12.04224 15.46752 12.04224 2.92352-0.98816 0.05632-8.50432 3.1488-11.04896 0.384-0.15872 2.75968-3.09248 2.31424-3.36896-1.32096-3.58912-3.65056-27.2896-2.1504-28.28288-0.2304-2.432-0.06144-3.92192-1.8176-5.68832-1.93536-2.98496-6.5792-0.72192-9.23136-0.72192-0.94208-1.60256-3.93216-2.7648-4.47488-4.48-2.31936-7.17824 9.71264-18.88768 7.51104-26.68544h-0.10752c0-0.88064-1.48992-7.23456-1.8176-8.448-0.2816-1.16224-0.60416-1.93536-1.71008-2.21184 0-0.49664-4.5312 1.0496-5.30432 1.10592-1.77152 2.15552-0.82432 6.90688-1.82272 6.79424-1.3312-0.16384-2.37056-2.21184-2.53952-2.21184-0.2816-2.15552-2.16064-8.78592-4.37248-9.94304-1.26976-1.60256-4.18816-1.87904-6.08256-1.87904v-0.10752c-0.60416-0.32768-0.60416-0.27648-0.60416-1.21344 1.99168-1.21344 3.14368-3.5328 3.04128-5.08416 0.55296-2.816-3.20512-5.30432-4.09088-4.69504-4.08576 0-7.07072 2.21184-10.65984 2.21184v-0.10752c-1.55648-0.44032-1.87392-5.68832-3.0464-5.68832-0.98816-4.02944-4.46976-6.46656-6.6816-9.7792h-0.22016c-0.06144-0.05632-0.06144-0.16384-0.10752-0.27648-2.60096-0.88576-4.42368-3.26144-6.41536-4.97664 0-2.0992-1.60256-4.69504-1.8176-7.07072-6.41024-5.46816-14.53056-2.65728-19.2256-13.6448-0.10752-2.3808-3.04128-7.01952-3.04128-7.07584-2.48832-0.10752-5.0176-0.32768-7.52128-0.384-0.15872 2.37568 1.65888 6.57408 4.37248 6.57408 0 1.16224-4.69504 7.17824-2.53952 7.17824 0.06144 0.27648 0.06144 0.55296 0.10752 0.88576h0.10752c0 3.97312 5.1968 5.30432 3.75808 10.77248-0.77824 3.20512-4.25984 4.31104-6.91712 3.20512 0-0.10752-20.04992-25.03168-20.11136-25.03168-0.94208-1.4336-8.56576-2.87744-10.38848-3.36896-2.432-2.15552-3.968-7.51616-0.22016-9.45152 0.55296-2.21184 1.72032-3.20512 1.72032-5.46816 0.88064-0.44032 6.95296 2.75968 10.05056 1.49504 0.82944-1.99168 1.55136-4.03456 1.55136-6.29248h0.10752c0.50176-1.10592 3.74784-4.5312 4.97152-4.69504v-0.11264c0.16896 0-0.0512 0.11264 0.10752 0.11264 4.64384 0 4.64384 11.1616 13.5424 11.1616 3.80928 1.1008 7.17824-3.04128 11.60704-1.7152 2.65728 0.77312 4.37248-0.10752 6.29248-1.10592 0-0.7168 0.50176-5.85728-1.32096-5.85728-0.45056-0.72192-10.0096-4.9152-10.16832-4.864 0.82944-1.4336-8.28416-10.94144-9.55392-10.05056-0.3328-1.0496-3.37408-5.64224-3.37408-5.69344-0.44032-0.32768-1.3312-1.65376-1.3312-2.0992h-0.10752c-0.44032-1.16224-1.54624-8.62208-1.54624-8.78592 0.22016-0.22528 0.10752-0.27648 0.22016-0.50688 0.10752-0.10752 0.21504-0.16896 0.38912-0.27648 0-0.66048 1.32096-1.0496 1.32096-1.38752 13.42464-1.87392 13.9264-22.71232 18.73408-25.1904 0-0.2816 0.15872-0.2816 0.22016-0.60928 3.36384-3.04128 7.51104-4.7616 11.38176-7.68v-0.2304c4.63872-2.37056-4.63872-2.65216-4.85888-4.18304 2.82112-1.65888 6.02624-3.31264 7.61856-8.06912h-0.10752c0-5.42208-11.55584-10.1632-14.1568-13.15328h-0.10752v-0.37888c0.99328-0.37888 3.03616-0.2816 4.08576-0.2816 2.87232 5.5296 11.32544 1.3312 15.25248-0.20992-0.0512-0.28672 0-0.10752-0.10752-0.28672-0.77312-2.97984-5.9136-4.5312-5.9136-6.9632 0.9984 0 3.8144 3.21024 4.70016 1.60768 0-0.98816 1.0496-3.49184 0.10752-4.47488-1.3824-1.664-2.70848-0.28672-3.8656-1.38752h-0.11264c0-6.4 7.18336-15.25248-3.26144-15.25248-3.09248-5.52448-3.8656-6.29248-4.09088-13.64992-2.82112-1.93536-2.3808-6.35392-4.85888-8.56576-1.3824 0.05632-3.80928 0.17408-4.2496-0.7168 0-1.65888 2.92352-2.82112 4.2496-3.09248-0.32768-2.70336-4.2496-1.54112-3.13856-5.1968 0.20992-3.15392 0.98304-4.97152 0.20992-7.9616-5.80096-0.44032-1.71008-5.41696-6.17984-7.68-1.26976-3.96288-7.13216-3.86048-7.52128-5.1968-1.20832-1.38752-7.17824-13.37344-9.55904-13.37344-0.05632-0.10752-0.05632-0.15872-0.10752-0.20992-2.816-0.9472-8.94464-2.04288-8.94464-5.46816-0.2816-0.89088 0.22016-1.3824 0.22016-2.3808-5.8624-3.42016-13.48096-11.38176-21.1712-8.94976-3.14368 0.99328-3.52768-5.95968-6.51264-5.95968-1.65376-1.60256-5.90336 2.97984-5.90336 4.36736-2.38592 1.64864-2.48832-1.3312-2.92864-2.09408-1.26976-5.248-9.72288-10.7776-14.91968-10.7776-3.4816-1.1008-20.55168-2.88256-21.16096-6.19008h-0.10752c0-1.4848-1.0496-4.85376-2.92864-4.85376-1.60256-1.9968-0.60928-1.21344-0.10752-3.20512 0.9984 0 1.77152-0.10752 2.53952-0.22016 0.50688-0.94208 0.44032-3.4816 0.22016-4.5824-2.37056-1.34656-3.26144-1.21856-6.08256-1.11616v0.10752c-1.16224 0.22016-3.30752 5.36064-4.37248 6.68672-3.968 2.03776 0 6.12864 0.22528 8.43776-0.22528 0.06656-0.384 0.11776-0.7168 0.11776v-0.11776c-2.44224-0.65024-4.31616-2.02752-6.79936-2.21184v0.11776c-0.44032 0.10752-5.74976 8.27904-5.90848 4.08576 1.26976-0.66048 1.64864-1.87392 0-2.0992 0-0.77312-9.22112 0.28672-10.0608 0.38912-3.09248 0-14.53056 3.21024-13.53728 8.28416h-0.10752c-0.50176 1.55648 0.93696 5.14048 0.93696 6.78912-0.32256 0.29184-0.66048 0.55808-0.93696 0.89088-1.04448 0.10752-12.09856 2.21184-12.09856 2.21184-1.8176 0.45056-1.3824 2.6624-2.432 2.98496-0.55296 0.49664-2.83136-0.1536-3.15392-0.384-0.88576-1.38752-4.58752-6.08256-6.51264-6.08256v-0.10752c-1.77152-0.10752-3.1488 0.16384-4.58752-1.10592 0-3.31264-4.31616-1.99168-5.69344-1.99168-0.50176 0.60928-1.7664 1.38752-2.03776 1.99168-0.50688 0-4.68992-1.21344-4.68992-1.3824-3.04128-0.9472-5.20192 1.98656-7.85408 1.98656-0.44544-0.60416-2.54464-2.97984-3.03616-2.97984-0.94208-0.82944-5.41696 1.10592-6.30272 0.384-1.26976-0.27648-0.99328-1.64864-0.99328-3.20512 1.32608-1.21344 1.65376-5.64224 1.54624-7.17824 1.21344 0 1.16224-6.35904 0.82944-7.18848-0.384-2.03776-2.04288-1.37728-3.64544-1.1008v0.10752c-3.26144 0.6656-5.08416 4.2496-5.08416 7.45984 0 2.21184-0.22016 1.0496-1.32608 2.69824-3.36896 0-3.26144-3.4816-5.46816-3.4816v-0.10752c-1.60256 0.10752-1.82272 0.72704-3.26144 0.89088-0.55296 2.53952-6.2976 7.17824-6.2976 7.296-0.94208 0.32256-3.25632-0.55296-3.8656 0-0.72192 0.22016-1.7152 1.54624-1.93536 2.21696h-0.10752c-0.50176 3.08736 0.6656 8.43776-0.384 11.04896-1.55136 0.49152-2.54464 0.49152-3.65056 1.8688-1.93024 1.3312-2.65216 8.62208-4.69504 11.27424-3.37408 2.31424-5.08416-1.9968-7.73632-1.9968v-0.10752c-3.70176 0.99328-2.20672 3.09248-2.92864 6.68672-1.16224 4.25984 0.88064 7.0144 1.82272 10.77248 0.05632 0.05632 0.16384 0.05632 0.22016 0.11264 0 2.31424 6.51776 5.23776 8.12032 7.07072 0.55296 0.15872 0.60928 0.27648 0.99328 0.77312 0.88064 0.4352 5.02784 19.11296 2.7648 21.70368 0 1.32096-4.58752 2.98496-4.58752 4.37248-0.38912 0.27136-0.77312 1.50016-0.82944 1.50016 0 3.74272-1.32608 5.0688-3.36896 7.66976-1.32608 0.3328-2.87232 0.94208-3.8656-0.2816-2.26816-1.16224 0.05632-7.168-3.37408-7.68-2.26304-0.75776-4.85888 3.65056-7.0144 5.20192-2.048 0-6.2464 3.26144-8.56576 3.97824v-0.11776c-2.0992-0.37888-5.13536-3.4816-6.51776-5.19168-6.02112-0.6656-11.32544-8.22784-16.96256-10.15808-2.26304-1.28-17.67936-4.41344-20.66432 0-1.21344 1.20832 0.22016 5.85728 0.32768 7.56736-2.04288 1.38752-3.31264 2.04288-3.25632 4.98688-0.77312 0.44032-5.5808 1.42336-5.5808 1.48992-4.08576 1.04448-6.85056 7.17824-12.09856 7.17824 0 0.05632-8.06912-2.7136-9.0624-4.47488 0-1.60256 0.50176-4.31616-0.38912-5.6832-2.59584-1.33632-2.65216-1.38752-5.68832-0.39936-1.82272 3.7632 0.0512 6.42048 0.10752 10.0608-1.82272 1.26976-5.74464 1.26976-7.73632 0.50688-2.04288-0.45056-3.92192-3.15392-6.29248-2.4832-2.60096 0.8192-3.97824 3.09248-5.69344 5.19168-3.59424 0.72704-6.46144 0.54784-10.05568 0.60928-2.7648 2.60096-5.19168 6.78912-7.51104 9.94304-1.99168 1.26976-4.36736-0.05632-6.2976 2.59584a8.6016 8.6016 0 0 1-0.82944 0.72704c-1.3824 1.93024-2.75968 6.57408-2.92864 9.66144-1.48992 1.0496-5.80096 0-6.51776 1.50016-0.94208 0-3.03616 4.1984-3.03616 4.85376-1.82272 1.43872-5.14048 2.37568-6.51776 4.096-0.05632 0.0512-0.16896 0.0512-0.22528 0.10752 0 1.48992-5.02272 7.52128-5.07904 7.57248-5.07904-0.88576-11.10528-3.70688-15.0272 1.4848-1.16224 1.32608-1.43872 4.1984-1.43872 6.5792-5.19168 4.25472-6.85056 9.5488-14.03392 9.5488-1.49504 0.44032-1.10592 0.50688-1.93536 1.21856 0.22016 2.5344-0.21504 3.98336 1.55136 5.5808v0.27648c2.65216 1.82272 0.99328 9.72288 0.99328 12.26752h-0.11264c0 3.30752-0.3328 1.77152 0.6144 3.712 2.75968 0 4.5824-2.16064 7.0144-2.21696 0.27648 1.0496 0.60416 0.384 0.60416 1.71008h0.11264c0 5.03296-1.49504 9.28256-2.32448 14.14656h-0.10752c-1.21344 3.8144 2.92864 5.85728 2.92864 8.78592-0.27648 1.82272-0.60928 1.87904-1.32608 2.4832-4.48 0.94208-5.08416 6.5792-4.08576 10.16832 1.16224 4.1472-11.5456 14.41792-13.9264 12.26752-0.93696 0.05632-2.1504 1.7152-2.04288 1.87392 0 2.32448 2.15552 8.67328 0.9984 10.66496-1.82272 0.94208-7.6288 5.85728-8.95488 7.46496a0.9216 0.9216 0 0 1-0.384 0.21504c-2.31936 3.53792 0.60416 6.79936 3.97824 7.68 1.87904 3.8144 0.99328 7.84384 0.99328 11.93472h-0.1024c0 4.47488-4.75136 1.55136-7.12704 1.48992-1.77152 1.3312-3.70688 2.21696-1.82272 6.46656 3.75296 0.83456 2.7648 5.69344 0.99328 5.69344-0.49664 1.0496 4.03456 3.64544 4.58752 6.18496 3.36896 0 13.75744 9.23136 19.83488 7.18336 4.1984-0.72192 0.88064-5.9136 6.51776-6.19008 8.17664 6.9632 12.43136 7.45984 22.87104 7.45984v0.10752c0.88576 0.27648 11.16672 1.38752 11.16672 1.99168 3.36896 1.81248 3.58912 3.42528 3.25632 5.46816 0.32768 0.27648 9.72288 12.04736 9.7792 12.26752 1.152 5.0432 1.28 10.2656 0.384 15.36h0.10752c0.49664 1.60256 0.72192 3.8144-0.60928 4.85888-1.10592 1.60256-0.32768 2.87744 1.55136 2.87744 7.62368 2.37568 13.70112-2.21184 20.82816-2.21184 0.05632 0.10752 0.05632 0.22016 0.11264 0.384 1.87392 2.26304-2.048 8.78592 5.19168 12.544 1.05472 1.77152 4.70016 8.62208 4.97152 9.67168h0.11264c0.88576 1.3824 2.54464 0.88064 3.8656 0.7168 0-3.42528 15.52384-5.80096 16.24576-5.68832v0.10752c2.37568 0.16384 2.87232 0.6656 3.5328 2.87744 0.05632 0-0.22016 7.73632 0.22016 8.78592h0.10752c1.32608 5.35552 8.89856 4.80256 12.928 6.19008v0.10752c2.26304 1.94048 1.3824 5.96992 6.19008 5.96992 2.26304 0.7168 5.68832-0.7168 5.68832-3.4816h0.10752c0.05632-1.54624 0.99328-3.59424 0.99328-4.47488-0.66048-1.93536 8.56576-9.33376 10.1632-9.0624 1.3824-0.38912 5.5296-2.82112 5.80096-3.87584 0-2.816 0.384-8.61184 2.432-10.15808 0.72192-3.8144 3.75808-9.7792-0.49664-13.04576v-0.21504c-3.8144-4.09088-4.64384-7.13216-0.9984-11.27424 2.26304-1.65376 6.51776-2.1504 9.45152-2.87232 1.77152 0.10752 31.38048-10.8288 30.27456-18.34496h0.10752c0.11264-2.75968 1.16736-7.3984 3.87072-8.78592 0.05632-0.16384 0.05632-0.32768 0.11264-0.50176h0.10752c0-0.10752-0.16384-5.2992 0.60928-5.2992v-0.22528c0.27648-0.21504 0.55296-0.49664 0.82944-0.7168l0.22016-0.38912c3.25632 0 6.95808-1.48992 10.77248-1.48992 2.92864-0.88576 8.6784-3.2 11.10528-3.2 0.0512-0.11264 0.0512-0.16896 0.10752-0.2816 7.07072 0 13.81376 0.384 20.82816 0.384v-0.10752c7.18336-0.9472 10.94144-8.40192 16.24576-9.17504 2.37056 2.75968 7.57248-1.10592 8.62208-2.60096v-0.10752c5.18656 0 6.40512-2.87744 9.4464-5.1968 0.6656-0.88576 1.32608-0.99328 2.43712-0.99328 1.55136 4.69504 31.82592 11.32544 31.82592 15.85664h0.22528v0.10752c4.85888 1.43872 11.32544-2.816 17.1776-1.60256 0.82432 2.65728 6.3488 7.95648 8.34048 9.7792 2.3808 2.15552 11.65312 9.22624 10.55232 10.55744-0.87552 3.36384-6.46144 18.01216 2.16064 18.01216v-0.11264c0.10752 0 10.66496-6.85056 10.66496-4.19328 2.98496 0 8.84736 7.3984 9.55392 10.1632 3.52768 0.72192 9.84064 0.88576 11.48928 4.1984 2.3296 1.77152 4.41856 8.064 5.08928 8.064 1.60256 1.99168 4.41344 2.60096 6.78912 3.20512h0.38912c1.1008 1.38752 5.29408 4.864 6.6304 4.864 0 0.66048 11.82208 0.88064 13.53216 1.3824 0 1.54624-0.37888 3.31264-0.37888 4.47488-1.48992 4.85888-7.35232 7.90528-11.99104 10.55232-1.99168 0.06144-2.75968-2.37568-5.46816-2.37568-1.20832-1.3824-1.38752-2.70336-2.53952-4.19328-2.82112 0.10752-7.9616 2.5344-9.7792 1.98656v-0.10752c-2.75968 0-5.0176-2.37568-9.32864-2.21184-0.60928 1.16224-1.55136 1.82272-1.55136 3.58912 1.60256 1.88416 4.31104 4.1472 3.52768 6.9632 0 5.96992 1.71008 9.83552 2.92864 16.0256 0.10752 0.0512 0.15872 0.10752 0.22016 0.10752a5.02784 5.02784 0 0 0 2.1504 1.87904c5.8624 0 12.16-0.54784 16.3584 4.37248 0.37888 0.32256 0.72192 0.66048 1.1008 0.98816 0 3.26144 2.16064 8.12032 2.16064 11.8784h0.10752c0 4.9152 5.5296 13.2608 5.68832 13.2608 1.4336 3.4816-2.65728 7.17824-5.30944 8.56576 0 0.22016-0.10752 1.3824-0.20992 1.3824 0.54272 3.5328 0.82432 3.97824 3.14368 5.80096 2.65728 0.6656 5.07904 1.49504 7.61856 2.3808 1.55136 3.20512 10.60864 5.9648 14.03392 5.9648 2.43712 0.55296 5.1968-1.99168 7.51616-1.99168v-0.10752c4.41856 0.22016 6.85056 0.60416 10.77248-1.11104v-0.10752c0.1536-0.06144 0.32256-0.1024 0.49664-0.10752v-0.10752h0.22016c0.10752-0.10752 13.54752-14.42304 13.54752-17.13152h0.10752c0.06144-0.27648 0.16384-0.49664 0.22016-0.768 0.2304-0.16896 0.38912-0.3328 0.60928-0.50176v-0.22016c1.99168-1.87904 4.1984-4.09088 6.19008-5.69344v-0.384h0.10752c0-3.31264 1.71008-5.07904 3.968-6.79424 0-0.32768 0.10752-0.32768 0.38912-0.50176 0.22016-0.93696 0.99328-5.19168 2.16064-5.19168 0.0512-0.05632 0.0512-0.16384 0.10752-0.22016 2.70336 0 7.68512 0.60416 9.78432-0.27648 0-1.21344 5.23264-0.05632 6.78912-0.50176 0-0.27648 2.0992-1.10592 2.432-1.49504 0.2816-2.42688 5.07904-3.80928 7.83872-4.46976 0.13824-3.05152 4.16768-11.28448 7.424-11.28448z m-44.19584-349.5168c0.32768 3.42016 0.768 6.50752 0.99328 10.15808h0.10752c0 4.41856 2.16064 5.2992 2.16064 9.0624h0.10752c0 3.98336 3.87072 11.1616 7.01952 14.03392 0.49664 0.67072 4.75648 1.4336 5.80096 1.10592v-0.10752c7.73632-1.16224 2.75968-5.7344 2.75968-9.16992h-0.0512c0-4.85888 1.86368-11.9296 0.60416-16.34304 0-1.94048-1.82272-3.5328-1.82272-4.98688-1.04448-1.64352-4.70016-2.1504-4.70016-4.85376h-0.10752c-1.72032-4.75648 0.44032-7.78752-3.5328-12.53376h-0.11264v0.10752h-0.10752c0 1.42848-3.04128 3.03104-3.26656 5.0688h-0.10752c-2.816 3.42528-4.58752 4.35712-5.74464 8.45824z m-128.52224-50.93888c4.58752 0.44032 14.69952 4.80256 19.73248 2.69312 1.26976-0.27648 3.65056-1.32096 3.97312-2.69312 1.16736-1.65888-1.98656-5.59104-4.68992-14.03904a0.40448 0.40448 0 0 0-0.22528-0.10752v-0.2816c-2.22208-4.5312-12.66176-8.72448-12.928-7.68h-0.50176v-0.10752c-1.87392-0.54784-9.45152 2.26304-9.45152 4.08064-0.0512 0.07168-0.15872 0.07168-0.22016 0.11264-3.08736 12.60032 3.80928 9.10848 4.31104 18.0224z"  horiz-adv-x="1024" />

    
    <glyph glyph-name="bumen" unicode="&#58937;" d="M511.853714 861.037714c-130.194286 0-233.764571-103.570286-233.764571-233.764571s103.570286-233.764571 233.764571-233.764572c130.194286 0 233.764571 103.570286 233.764572 233.764572 0 126.976-106.934857 233.764571-233.764572 233.764571z m0-407.990857c-93.476571 0-174.372571 80.749714-174.372571 174.372572 0 93.476571 80.749714 174.372571 174.372571 174.372571 93.476571 0 174.372571-80.749714 174.372572-174.372571-0.146286-93.622857-84.260571-174.372571-174.372572-174.372572z m60.123429-119.661714h-120.246857c-167.058286 0-300.617143-133.558857-300.617143-300.617143v-53.394286c0-36.717714 30.134857-66.852571 66.852571-66.852571h587.776c36.717714 0 66.852571 29.988571 66.852572 66.852571v53.394286c0 167.058286-136.923429 300.617143-300.617143 300.617143z m244.443428-361.325714H207.286857v60.708571c0 130.194286 110.884571 241.078857 241.078857 241.078857h126.976c130.194286 0 241.078857-110.884571 241.078857-241.078857v-60.708571z m0 0M311.442286 383.561143c-3.364571 13.312-13.312 20.041143-26.770286 16.676571-63.488-6.729143-126.976 33.353143-143.652571 96.841143-16.676571 66.852571 13.312 133.558857 73.435428 160.329143 9.947429 6.729143 16.676571 16.676571 13.312 29.988571-3.364571 13.312-20.041143 23.405714-33.353143 16.676572-80.164571-36.717714-123.611429-126.976-100.205714-217.088 9.947429-40.082286 36.717714-76.8 70.070857-100.205714-90.112-33.353143-153.6-120.246857-153.6-220.452572v-93.476571c0-13.312 9.947429-26.770286 26.770286-26.770286 16.676571 0 26.770286 9.947429 26.770286 26.770286v76.8c0 110.153143 90.112 200.411429 200.411428 200.411428h26.770286c3.364571 0 6.729143 0 13.312 3.364572 3.364571 6.729143 10.093714 16.676571 6.729143 30.134857z m400.822857 0c3.364571 13.312 13.312 20.041143 26.770286 16.676571 63.488-6.729143 126.976 33.353143 143.652571 96.841143 16.676571 63.488-13.312 130.194286-73.435429 156.964572-9.947429 6.729143-16.676571 16.676571-13.312 29.988571 3.364571 13.312 20.041143 23.405714 33.353143 16.676571 80.164571-36.717714 123.611429-126.976 100.205715-217.088-9.947429-40.082286-36.717714-76.8-70.070858-100.205714 90.112-33.353143 153.6-116.882286 153.6-220.452571V69.485714c0-13.312-9.947429-26.770286-26.770285-26.770285-16.676571 0-26.770286 9.947429-26.770286 26.770285v76.8c0 110.153143-90.112 200.411429-200.411429 200.411429h-26.770285c-3.364571 0-6.729143 0-13.312 3.364571-3.364571 10.093714-10.093714 20.041143-6.729143 33.499429z m0 0"  horiz-adv-x="1024" />

    
    <glyph glyph-name="xingzuo" unicode="&#59061;" d="M670.254545 556.218182l-107.054545 242.036363-4.654545 13.963637c-9.309091 18.618182-18.618182 37.236364-46.545455 37.236363-32.581818 0-41.890909-23.272727-46.545455-37.236363L353.745455 551.563636 46.545455 528.290909c-9.309091 0-23.272727-9.309091-27.927273-23.272727-9.309091-18.618182 0-27.927273 4.654545-37.236364 9.309091-13.963636 125.672727-116.363636 125.672728-116.363636s214.109091 60.509091 223.418181 65.163636c0 23.272727 13.963636 46.545455 37.236364 55.854546 9.309091 4.654545 18.618182 4.654545 27.927273 4.654545 32.581818 0 65.163636-27.927273 65.163636-60.509091 0-9.309091-4.654545-18.618182-9.309091-27.927273 4.654545-4.654545 121.018182-130.327273 121.018182-130.327272 4.654545 0 13.963636 4.654545 18.618182 4.654545h4.654545c0 4.654545 158.254545 274.618182 158.254546 279.272727l-125.672728 13.963637zM972.8 523.636364l-125.672727 9.309091s-167.563636-288.581818-167.563637-293.236364c4.654545-9.309091 9.309091-18.618182 9.309091-32.581818 0-27.927273-23.272727-51.2-51.2-51.2s-51.2 23.272727-51.2 51.2c0 4.654545 0 9.309091 4.654546 18.618182 0 0-121.018182 130.327273-125.672728 130.327272-9.309091-4.654545-13.963636-4.654545-23.272727-4.654545-18.618182 0-37.236364 9.309091-51.2 23.272727l-200.145454-60.509091s41.890909-37.236364 65.163636-55.854545c-13.963636-46.545455-60.509091-246.690909-69.818182-283.927273 0-4.654545-4.654545-18.618182 0-27.927273 0-4.654545 4.654545-4.654545 9.309091-4.654545 37.236364-9.309091 269.963636 130.327273 316.509091 158.254545l256-144.290909c9.309091-4.654545 37.236364-18.618182 55.854545-4.654545 9.309091 4.654545 9.309091 13.963636 9.309091 23.272727 0 4.654545-51.2 242.036364-60.509091 293.236364 0 0 218.763636 190.836364 228.072728 200.145454 4.654545 4.654545 9.309091 13.963636 9.309091 23.272727 0 23.272727-18.618182 27.927273-37.236364 32.581819zM158.254545 356.072727c-4.654545 0-4.654545 0 0 0-4.654545 0-4.654545 0 0 0z"  horiz-adv-x="1024" />

    
    <glyph glyph-name="chengshi" unicode="&#58888;" d="M868.746 477.84H737.067c-20.492 0-37.387-16.788-37.387-37.5v-506.777h206.453V440.34c0 20.718-16.738 37.501-37.387 37.501z m-37.688-450.436h-56.304v56.307h56.304v-56.307z m0 131.379h-56.304v56.306h56.304v-56.306z m0 150.144h-56.304v56.307h56.304v-56.307z m0 0M643.426 327.696h-93.94c-20.674 0-37.487-16.813-37.487-37.55v-356.583h168.913V290.144c0.001 20.631-16.782 37.552-37.486 37.552zM624.61 27.404h-56.307v56.307h56.307v-56.307z m0 131.379h-56.307v56.306h56.307v-56.306z m0 0M455.87 627.985h-18.945V684.18c0 21.007-16.852 37.648-37.643 37.648h-65.579V806.163c0 15.58-12.606 28.275-28.155 28.275-15.654 0-28.151-12.656-28.151-28.275v-84.335h-65.579c-20.81 0-37.642-16.857-37.642-37.648v-56.195H155.23c-20.507 0-37.363-16.812-37.363-37.554v-656.868h375.366V590.431c0 20.893-16.73 37.554-37.363 37.554z m-187.858-600.58h-56.308V83.71h56.308v-56.307z m0 131.378h-56.308v56.306h56.308v-56.306z m0 150.144h-56.308v56.307h56.308v-56.307z m0 150.146h-56.308v56.306h56.308v-56.306zM399.39 27.404h-56.303v56.307h56.303v-56.307z m0 131.379h-56.303v56.306h56.303v-56.306z m0 150.144h-56.303v56.307h56.303v-56.307z m0 150.146h-56.303v56.306h56.303v-56.306z m0 0"  horiz-adv-x="1024" />

    
    <glyph glyph-name="tips1" unicode="&#59230;" d="M511.488 896a511.488 511.488 0 1 1 0-1022.976A511.488 511.488 0 0 1 511.488 896z m0-795.712a56.832 56.832 0 1 0 0 113.728 56.832 56.832 0 0 0 0-113.728z m54.208 227.52A60.288 60.288 0 0 0 512 272c2.048-0.192 3.84-1.152 6.016-1.152h-11.84c2.048 0 3.84 0.96 5.824 1.152a59.072 59.072 0 0 0-53.12 55.808l-12.992 283.904a54.208 54.208 0 0 0 54.592 57.024h26.24a53.184 53.184 0 0 0 54.144-57.024l-15.168-283.904z"  horiz-adv-x="1024" />

    
    <glyph glyph-name="chanpin" unicode="&#58889;" d="M227.54619 440.895579h227.54619V668.45381C455.104421 793.371214 351.8254 896 227.54619 896 103.230856 896 0 793.371214 0 668.45381s103.218815-227.02841 227.522107-227.02841l0.024083-0.529821zM0 99.558231C0-24.323612 103.230856-127.987959 227.54619-127.987959c123.303857 0 227.54619 103.664346 227.54619 227.54619V327.116463H227.54619C103.230856 327.116463 0 224.451552 0 99.558231z m1023.987959 568.895579C1023.987959 793.371214 920.708937 896 796.441769 896 672.150517 896 568.883537 793.371214 568.883537 668.45381v-227.54619h227.54619c124.27921-0.012041 227.558231 102.628786 227.558232 227.54619zM796.441769 327.116463H568.883537v-227.54619c0-123.893885 103.279022-227.54619 227.54619-227.54619 124.291251 0 227.54619 103.664346 227.54619 227.54619 0.012041 124.881279-103.254939 227.54619-227.534148 227.54619z m0 0"  horiz-adv-x="1024" />

    
    <glyph glyph-name="fenxi" unicode="&#58905;" d="M492.8 358.4c-6.4 6.4-6.4 12.8-12.8 19.2V384 832C249.6 812.8 64 620.8 64 384c0-249.6 198.4-448 448-448 115.2 0 224 44.8 300.8 121.6l-320 300.8zM928 352H595.2l243.2-230.4c51.2 64 83.2 147.2 89.6 230.4zM812.8 672c-70.4 76.8-166.4 121.6-268.8 128v-384h384c-6.4 96-44.8 185.6-115.2 256z"  horiz-adv-x="1024" />

    
    <glyph glyph-name="shujuzhili" unicode="&#59062;" d="M57.6 620.8c38.4-19.2 89.6-38.4 156.8-48 67.2-12.8 137.6-19.2 217.6-19.2s150.4 6.4 217.6 19.2c67.2 12.8 118.4 28.8 156.8 51.2 38.4 22.4 57.6 44.8 57.6 67.2V758.4c0 25.6-19.2 48-57.6 67.2C768 848 716.8 864 649.6 876.8 582.4 889.6 508.8 896 432 896S281.6 889.6 214.4 876.8C147.2 864 96 848 57.6 828.8 19.2 806.4 0 784 0 758.4v-67.2c0-25.6 19.2-48 57.6-70.4zM57.6 416c38.4-22.4 89.6-38.4 156.8-51.2 67.2-12.8 137.6-19.2 217.6-19.2s147.2-6.4 214.4 6.4c0 0 19.2 3.2 35.2 9.6 32 64 112 105.6 182.4 108.8V576c-44.8-28.8-105.6-51.2-182.4-67.2-76.8-16-160-22.4-249.6-22.4s-172.8 6.4-249.6 22.4C105.6 521.6 44.8 547.2 0 576v-89.6c0-25.6 19.2-48 57.6-70.4zM57.6 211.2c38.4-22.4 89.6-38.4 156.8-51.2 67.2-12.8 137.6-19.2 217.6-19.2 73.6 0 121.6-3.2 185.6 9.6l44.8 51.2c-9.6 19.2-12.8 64-12.8 92.8-73.6-12.8-131.2-12.8-214.4-12.8-89.6 0-172.8 6.4-249.6 22.4-76.8 16-137.6 38.4-182.4 67.2v-89.6c-3.2-28.8 16-51.2 54.4-70.4zM432 73.6c-89.6 0-172.8 6.4-249.6 22.4-76.8 16-137.6 38.4-182.4 67.2v-89.6c0-25.6 19.2-48 57.6-67.2 38.4-22.4 89.6-38.4 156.8-51.2 67.2-12.8 137.6-19.2 217.6-19.2h32c3.2 19.2 6.4 28.8 22.4 57.6l73.6 83.2c-44.8-3.2-80-3.2-128-3.2zM1008 307.2l-54.4-57.6c-25.6-25.6-64-25.6-89.6-3.2-25.6 25.6-25.6 64-3.2 89.6l54.4 57.6c-6.4 3.2-16 6.4-25.6 6.4-92.8 22.4-182.4-35.2-204.8-128-6.4-35.2-6.4-67.2 6.4-96l-160-179.2c-25.6-28.8-25.6-76.8 3.2-102.4 28.8-28.8 73.6-25.6 99.2 3.2l156.8 176c6.4-3.2 12.8-3.2 19.2-6.4 92.8-22.4 182.4 35.2 204.8 128 12.8 41.6 6.4 76.8-6.4 112z"  horiz-adv-x="1024" />

    
    <glyph glyph-name="tongguo" unicode="&#58925;" d="M786.848 556.8a41.696 41.696 0 0 1-58.928 0L462.752 291.712l-147.232 147.248a41.696 41.696 0 0 1-58.928 0 41.744 41.744 0 0 1 0-58.96l176.784-176.752a41.696 41.696 0 0 1 58.928 0l294.544 294.56a41.808 41.808 0 0 1 0 58.992zM511.984-112.36800000000005C238.304-112.36800000000005 15.632 110.32000000000005 15.632 384S238.304 880.368 511.984 880.368c273.68 0 496.368-222.672 496.368-496.352S785.664-112.36800000000005 511.984-112.36800000000005z m0 921.824c-234.592 0-425.44-190.848-425.44-425.44 0-234.608 190.848-425.44 425.44-425.44C746.576-41.440000000000055 937.44 149.40800000000002 937.44 384c0 234.608-190.864 425.456-425.456 425.456z"  horiz-adv-x="1024" />

    
    <glyph glyph-name="icon-" unicode="&#59038;" d="M372.18986667 881.1026963H92.5696c-42.71976297 0-77.6722963-34.95253333-77.6722963-77.6722963v-279.62026667c0-42.71976297 34.95253333-77.6722963 77.6722963-77.6722963h279.62026667c42.71976297 0 77.6722963 34.95253333 77.6722963 77.6722963V803.4304c0 42.71976297-34.95253333 77.6722963-77.6722963 77.6722963zM931.4304 881.1026963H651.81013333c-42.71976297 0-77.6722963-34.95253333-77.6722963-77.6722963v-279.62026667c0-42.71976297 34.95253333-77.6722963 77.6722963-77.6722963h279.62026667c42.71976297 0 77.6722963 34.95253333 77.6722963 77.6722963V803.4304c0 42.71976297-34.95253333 77.6722963-77.6722963 77.6722963zM931.4304 321.86216297H651.81013333c-42.71976297 0-77.6722963-34.95253333-77.6722963-77.6722963v-279.62026667c0-42.71976297 34.95253333-77.6722963 77.6722963-77.6722963h279.62026667c42.71976297 0 77.6722963 34.95253333 77.6722963 77.6722963V244.18986667000001c0 42.71976297-34.95253333 77.6722963-77.6722963 77.6722963zM372.18986667 321.86216297H92.5696c-42.71976297 0-77.6722963-34.95253333-77.6722963-77.6722963v-279.62026667c0-42.71976297 34.95253333-77.6722963 77.6722963-77.6722963h279.62026667c42.71976297 0 77.6722963 34.95253333 77.6722963 77.6722963V244.18986667000001c0 42.71976297-34.95253333 77.6722963-77.6722963 77.6722963z"  horiz-adv-x="1024" />

    
    <glyph glyph-name="zichan" unicode="&#59070;" d="M125.44 870.912h773.12v-119.296h-773.12V870.912zM25.6 711.68v-814.08h972.8V711.68H25.6z m669.696-502.784c17.408 0 32.768-10.752 32.768-25.6 0-12.8-15.36-24.064-32.768-24.064h-160.768V71.68c0-12.8-13.312-24.064-33.792-24.064-18.432 0-32.768 11.264-32.768 24.064v87.552H307.712c-17.408 0-31.744 11.264-31.744 25.6 0 13.312 14.336 24.064 31.744 24.064h160.768v75.264H307.712c-17.408 0-31.744 9.728-31.744 25.6 0 12.8 14.336 23.552 31.744 23.552h136.192l-140.288 199.68c-9.216 11.264-3.072 25.6 15.36 32.256 15.36 5.12 34.816 1.024 43.008-9.728l141.312-200.704 139.776 201.216c8.192 11.264 28.672 16.384 44.032 9.216 17.408-5.12 22.528-20.48 14.336-31.744v1.024l-140.288-201.216h134.144c17.408 0 32.768-10.752 32.768-25.088 0-14.336-15.36-24.064-32.768-24.064h-160.256v-75.264h160.256z"  horiz-adv-x="1024" />

    
    <glyph glyph-name="shuju" unicode="&#58906;" d="M211.13 286.05c-13.291 0-25.891 2.522-37.805 7.562-11.916 5.038-22.227 11.912-30.933 20.622-8.707 8.705-15.58 19.016-20.622 30.932-5.04 11.914-7.562 24.514-7.562 37.805 0 13.287 2.522 25.777 7.562 37.459 5.041 11.687 11.916 21.883 20.622 30.59s19.018 15.58 30.933 20.621c11.915 5.04 24.515 7.562 37.806 7.562 2.748 0 5.27-0.118 7.563-0.347 2.289-0.228 4.581-0.341 6.873-0.341l134.043 162.22c-2.292 4.58-3.784 9.621-4.47 15.12-0.685 5.5-1.031 11.226-1.031 17.183 0 13.292 2.521 25.892 7.562 37.806 5.041 11.914 11.916 22.225 20.622 30.931 8.707 8.707 19.018 15.581 30.933 20.622 11.915 5.04 24.519 7.561 37.807 7.561s25.892-2.521 37.808-7.56c11.914-5.042 22.225-11.916 30.932-20.623 8.707-8.706 15.58-19.017 20.622-30.931s7.562-24.517 7.562-37.806c0-10.999-1.718-21.423-5.155-31.273-3.437-9.855-8.137-19.131-14.093-27.84L644.882 354.1l66.676 118.913c-5.042 7.79-9.164 16.382-12.372 25.777s-4.813 19.362-4.813 29.901c0 13.292 2.521 25.891 7.562 37.806 5.042 11.915 11.915 22.225 20.623 30.932 8.706 8.706 19.017 15.58 30.932 20.62 11.915 5.041 24.518 7.563 37.807 7.563 13.289 0 25.892-2.522 37.807-7.562 11.915-5.041 22.34-11.915 31.274-20.621 8.939-8.707 15.927-19.017 20.968-30.932 5.042-11.915 7.562-24.518 7.562-37.806 0-13.747-2.52-26.578-7.562-38.493-5.04-11.912-12.029-22.34-20.968-31.274-8.934-8.933-19.36-15.925-31.274-20.962-11.918-5.042-24.518-7.562-37.807-7.562H774.8l-65.303-118.918c10.083-9.162 18.104-19.933 24.059-32.303 5.957-12.375 8.935-25.891 8.935-40.554 0-13.29-2.52-25.894-7.563-37.805-5.037-11.915-12.03-22.34-20.963-31.277-8.935-8.935-19.245-15.923-30.934-20.964-11.687-5.04-24.4-7.561-38.148-7.561-13.748 0-26.465 2.52-38.152 7.561-11.685 5.041-21.882 12.03-30.588 20.964-8.71 8.937-15.584 19.362-20.622 31.277-5.042 11.911-7.562 24.514-7.562 37.805 0 14.663 2.863 28.179 8.593 40.554 5.725 12.37 13.633 23.142 23.712 32.303L462.03 576.12c-4.584-0.916-8.251-1.374-11-1.374-7.333 0-14.322 0.916-20.963 2.749-6.646 1.833-12.949 4.125-18.904 6.873L293.62 435.896c4.582-7.79 8.245-16.155 11-25.088 2.748-8.934 4.12-18.215 4.12-27.837 0-13.291-2.52-25.894-7.557-37.805-5.042-11.916-12.03-22.227-20.968-30.932-8.935-8.71-19.245-15.584-30.934-20.622-11.684-5.041-24.401-7.562-38.15-7.562m-96.924-194.527h774.7v-93.48h-774.7v93.48z m0 0"  horiz-adv-x="1024" />

    
    <glyph glyph-name="zuoxi" unicode="&#58968;" d="M673.781153 254.912761h284.165884V335.547517c0 12.893375-4.604777 23.433197-13.712002 31.517138-9.107225 8.083941-20.670331 13.20036-34.689317 15.349255h-235.662236l-0.102329-127.501149zM579.536724 522.296792c39.089437 0 70.811232 31.721795 70.811232 70.811232s-31.721795 70.811232-70.811232 70.811233-70.811232-31.721795-70.811232-70.811233 31.721795-70.811232 70.811232-70.811232zM405.476167 373.409014c-5.935045-5.935045-8.902568-16.474868-8.902569-25.070451v-12.58639H269.174778c-17.805136 0-32.233437-14.4283-32.233437-32.233436v-16.474868c0-3.274508 0.511642-6.549016 1.432597-9.618867 4.093135-13.098031 16.372539-22.61457 30.80084-22.614569h220.415309V382.311582h-62.215649c-8.697911 0-15.963226-2.865194-21.898271-8.902568zM199.796143 490.370341c0 8.595583-3.274508 16.372539-9.721195 23.433197-6.446687 6.958329-14.223643 10.539822-23.330869 10.539822s-16.986509-3.479165-23.433197-10.539822c-6.446687-6.958329-9.721195-14.735285-9.721195-23.433197v-430.70011h66.104127v93.52813h289.691616v66.104127h-289.589287V490.370341zM807.319676 642.839612c-11.665434 11.665434-30.698511 11.665434-42.363945 0L621.184371 499.170581c-11.358449 7.469971-25.070451 11.870091-39.703408 11.870091-18.112122 0-34.586989-6.651344-47.275707-17.60048l-149.39942 149.39942c-11.665434 11.665434-30.698511 11.665434-42.466274 0-11.665434-11.665434-11.665434-30.698511 0-42.363945L508.623164 432.452483v-448.812231c0-16.474868 13.405016-29.982212 29.982212-29.982213 16.577196 0 29.982212 13.405016 29.982213 29.982213V195.35765c4.093135-0.716299 8.390926-1.22794 12.791046-1.227941 4.40012 0 8.697911 0.409313 12.893375 1.227941v-211.717398c0-16.474868 13.405016-29.982212 29.982212-29.982213 16.474868 0 29.982212 13.405016 29.982212 29.982213l0.102329 461.705606 152.776256 155.129809c11.870091 11.665434 11.870091 30.698511 0.204657 42.363945zM673.781153 219.302488v-66.104127H893.377836v-93.52813h66.206455v159.632257zM250.653343 689.603677c0 5.62806-4.604777 10.232837-10.232837 10.232837h-45.84311v45.740782c0 5.525732-4.604777 10.130509-10.232837 10.130509s-10.232837-4.502448-10.232837-10.130509v-66.206456l20.363345 0.102329h45.84311c5.730389-0.102328 10.335165 4.40012 10.335166 10.130508zM303.045468 693.18517c0 65.490157-53.108424 118.598581-118.496252 118.598581-65.490157 0-118.598581-53.108424-118.598581-118.598581S118.95673 574.688918 184.549216 574.688918c65.387829 0 118.496253 53.006096 118.496252 118.496252z m-201.177576 0c0 45.536125 37.04287 82.578995 82.476667 82.578995 45.536125 0 82.578995-37.04287 82.578995-82.578995s-36.940542-82.476666-82.578995-82.476666c-45.433796-0.102328-82.476666 36.940542-82.476667 82.476666z"  horiz-adv-x="1024" />

    
    <glyph glyph-name="jiatingxiangxizhuzhi" unicode="&#58886;" d="M952.059 70.459C954.73-56.043 727.336-124.8 513.332-124.8c-214.02 0-441.414 68.757-441.414 195.259 0 4.297 1.115 8.486 1.665 12.703-0.711 4.916-1.665 9.723-1.665 14.799 0 68.758 72.222 129.269 197.958 165.017l13.375-52.239c-2.27-0.645-4.271-1.423-6.5-2.068l6.5-25.434c-85.449-24.414-145.356-61.801-157.845-96.797 20.896-61.962 174.135-125.991 385.239-125.991 211.146 0 364.397 64.029 385.267 126.018-12.65 39.885-80.279 79.983-176.605 102.276l6.594 25.729c-2.256 0.564-4.297 1.235-6.594 1.772l13.389 52.266c139.111-33.035 219.363-96.259 219.363-170.549 0.121-5.586-0.752-10.957-1.518-16.356 0.416-3.734 1.518-7.333 1.518-11.146z m-444.086-10.986c-45.484 0-326.379 365.78-326.379 519.785C181.594 752.547 328.736 892.8 507.973 892.8c179.238 0 326.38-140.253 326.38-313.541 0.001-154.005-280.896-519.786-326.38-519.786z m141.785 503.294c0 77.002-61.533 137.514-136.426 137.514-74.921 0-136.44-60.512-136.44-137.514s61.519-137.514 136.44-137.514c74.893 0.001 136.426 60.512 136.426 137.514z"  horiz-adv-x="1024" />

    
    <glyph glyph-name="zhengmiangou" unicode="&#58914;" d="M250.193337 676.997568a118.913513 118.913513 0 0 1-0.695062-12.916568v-259.142259a286.828893 286.828893 0 0 1 34.753097-137.50642v-106.170711a254.856044 254.856044 0 0 1 509.712087 0v106.170711a286.770971 286.770971 0 0 1 34.753097 137.50642V657.304146a23.168731 23.168731 0 0 1 0.463375 4.633746V873.526331a22.415747 22.415747 0 0 1-33.652582 19.403812L612.43645 787.106963a22.415747 22.415747 0 0 1-6.371401-5.444652H473.597828a22.473669 22.473669 0 0 1-6.371401 5.444652L283.845919 892.930143a22.415747 22.415747 0 0 1-33.652582-19.403812zM498.793823-128a269.510266 269.510266 0 0 0-269.278579 269.162735v102.521636a303.047005 303.047005 0 0 0-34.753097 141.155496V643.866282a133.915267 133.915267 0 0 0 0.695062 13.669551V853.311613a36.896205 36.896205 0 0 0 55.141581 31.972849l183.438429-105.82318a37.243736 37.243736 0 0 0 5.097121-3.533232h120.593246a37.301657 37.301657 0 0 0 5.097121 3.533232L748.205215 885.284462a36.896205 36.896205 0 0 0 55.373268-31.972849V641.723174a37.765032 37.765032 0 0 0-0.463375-5.792182v-251.496578a302.989083 302.989083 0 0 0-34.753097-141.097574v-102.174105a269.510266 269.510266 0 0 0-269.568188-269.162735z m-266.440409 989.304825a8.2249 8.2249 0 0 1-4.054528-1.100515 7.819447 7.819447 0 0 1-3.996606-6.892697v-196.644607a14.596301 14.596301 0 0 0 0-1.563889 104.722665 104.722665 0 0 1-0.637141-11.584366v-259.084337a273.970247 273.970247 0 0 1 33.24713-130.555801 14.480457 14.480457 0 0 0 1.737655-6.950619v-105.765259a240.375587 240.375587 0 0 1 480.751173 0v106.054868a14.422535 14.422535 0 0 0 1.737655 6.950619 273.912325 273.912325 0 0 1 33.015442 130.266192V637.089428a14.538379 14.538379 0 0 0 0 2.896092 8.514509 8.514509 0 0 1 0 1.737654V853.311613a7.93529 7.93529 0 0 1-11.931896 6.892697L579.247242 754.38113a8.051134 8.051134 0 0 1-2.316873-1.969342 14.480457 14.480457 0 0 0-11.584365-5.444652H433.168392a14.480457 14.480457 0 0 0-11.584366 5.444652 7.993212 7.993212 0 0 1-2.316873 1.91142L236.176254 860.20431a7.819447 7.819447 0 0 1-3.938684 1.100515z m-22.589513-204.637819zM628.59664 191.20719499999996c0-72.981503-53.577691-132.177612-119.666497-132.177612s-119.666497 58.964421-119.666497 132.177612 53.577691 132.11969 119.666497 132.11969 119.666497-59.138187 119.666497-132.11969M647.189547 412.642344c-3.47531 0.984671-7.008541 1.91142-10.425929 2.664404a105.881102 105.881102 0 0 0-81.611856 104.259291v86.882742a46.337463 46.337463 0 0 1-92.674925 0v-86.882742a105.881102 105.881102 0 0 0-81.553934-104.259291q-5.328808-1.158437-10.657617-2.722326C319.525765 397.872278 268.149103 340.64551200000005 259.402907 288.63171a157.663216 157.663216 0 0 1 249.063861-153.898297 157.663216 157.663216 0 1 1 138.259404 278.024775M430.156457 505.606878a24.037559 24.037559 0 1 0-24.037559 24.037559 24.037559 24.037559 0 0 0 24.037559-24.037559M635.721025 505.606878a24.037559 24.037559 0 1 0-24.037559 24.037559 23.979637 23.979637 0 0 0 24.037559-24.037559M555.209684 256.60093900000004l39.792296 68.869054a53.346004 53.346004 0 0 1-46.337463 80.047966H469.137847a53.346004 53.346004 0 0 1-46.337462-80.047966l39.792296-68.869054a53.403926 53.403926 0 0 1 92.674925 0M283.266701 825.567057l63.714011-36.664517a22.415747 22.415747 0 0 0 0-38.865547l-63.714011-36.664517a22.473669 22.473669 0 0 0-33.652583 19.403812V806.163245a22.415747 22.415747 0 0 0 33.652583 19.403812M744.266531 825.567057l-63.714011-36.664517a22.415747 22.415747 0 0 1 0-38.865547l63.714011-36.664517a22.473669 22.473669 0 0 1 33.420895 19.403812V806.163245a22.415747 22.415747 0 0 1-33.652582 19.403812"  horiz-adv-x="1024" />

    
    <glyph glyph-name="shenpi" unicode="&#59102;" d="M256 831.667h-64V640h640V831.667h-64V704H256V831.667zM64 832h896v-896H64V832z m401.964-582.907l-153.395 153.26L256 345.782 465.257 137.37l1.06-1.06L821 497.215l-56.569 56.569-298.467-304.692z"  horiz-adv-x="1024" />

    
    <glyph glyph-name="hunyinlianai" unicode="&#58907;" d="M512-128C229.239467-128 0 101.239467 0 384S229.239467 896 512 896 1024 666.760533 1024 384 794.760533-128 512-128z m277.981867 677.250844c-68.8128 67.766044-180.406044 67.766044-249.196089 0l-17.590045-17.294222-17.567289 17.294222c-68.835556 67.766044-180.406044 67.766044-249.196088 0a171.576889 171.576889 0 0 1 0-245.3504l17.567288-17.294222 249.196089-208.941511 249.196089 208.918756 17.590045 17.294222a171.6224 171.6224 0 0 1 0 245.373155z"  horiz-adv-x="1024" />

    
    <glyph glyph-name="xueli" unicode="&#58939;" d="M536.208892 290.416373c-1.445307 0-3.613267 0.722653-5.058574 1.445307l-317.967537 164.042343c-3.613267 2.16796-5.781228 5.781228-5.781228 9.394495s2.16796 7.949188 5.781228 9.394495l317.967537 164.042343c2.890614 1.445307 6.503881 1.445307 10.117148 0l317.244884-164.042343c3.613267-2.16796 5.781228-5.781228 5.781228-9.394495s-2.16796-7.949188-5.781228-9.394495L541.267466 291.86168c-1.445307-0.722653-3.613267-1.445307-5.058574-1.445307zM242.08892 465.298518l294.119972-151.757234 293.397318 151.757234-293.397318 151.757234-294.119972-151.757234zM536.208892 67.116443c-117.069866 0-237.030346 39.023289-237.030346 77.323924V417.603387c0 5.781228 5.058574 10.839802 10.839803 10.839803s10.839802-5.058574 10.839802-10.839803V144.440367c2.16796-14.45307 90.331687-55.644319 215.350741-55.644319s213.182781 41.191249 215.350741 55.644319V417.603387c0 5.781228 5.058574 10.839802 10.839802 10.839803s10.839802-5.058574 10.839803-10.839803V144.440367c0-38.300635-119.96048-77.323924-237.030346-77.323924zM831.051517 189.967537c-5.781228 0-10.117149 4.335921-10.117149 10.117149V377.134792c0 5.781228 4.335921 10.117149 10.117149 10.117149s10.117149-4.335921 10.117149-10.117149v-177.050106c0-5.781228-4.335921-10.117149-10.117149-10.117149zM563.669725 110.475653c-10.117149 0-18.066337 7.949188-18.066338 17.343684 0 10.117149 7.949188 18.066337 17.343684 18.78899 0.722653 0 83.105152 2.16796 135.136204 28.90614 8.671842 4.335921 19.511644 0.722653 24.570218-7.949188 4.335921-8.671842 0.722653-19.511644-7.949188-24.570219-59.257586-29.628793-146.698659-31.796754-151.03458-32.519407z"  horiz-adv-x="1024" />

    
    <glyph glyph-name="wajueji01" unicode="&#58880;" d="M508.88589919 180.44520948000002l398.78875302 0c30.08041597 0 57.57144027-12.42659893 77.29180521-32.10722114 0.51912036-0.56010342 1.03327334-0.56010342 1.03327334-1.07922379 19.20621075-19.67813913 31.0739478-46.69102611 31.0739478-75.69345984 0-30.07793289-12.43156631-57.56647287-32.10846268-77.28683659-0.51912036-0.51539453-1.03575643-0.99229028-1.59834416-1.5548768-19.67689637-18.64238148-46.13092269-30.55358589-75.69345983-30.55358589L508.88589919-37.82999700000005c-30.03570707 0-57.52548981 12.42908202-77.24833785 32.10846269l16.65904367 16.65780212-16.65904367-16.65780212c-0.51663606 0.56258772-1.03451489 1.07798224-1.03451489 1.55363525-19.16150185 19.72284803-31.11493086 46.17563158-31.11493086 75.73320135 0 30.03694982 12.47130783 57.05231989 32.14944697 76.77268484C451.36040938 168.01861054999995 478.8501909 180.44520948000002 508.88589919 180.44520948000002L508.88589919 180.44520948000002zM967.83548416 205.90694551c-159.15385561 0-320.46740033-2.63285904-479.70570635 0-7.72595166 0-15.01847491 3.58292351-19.67938066 10.31410181L330.52831593 427.28569546c-16.57211017 25.93614749-27.49102429 41.51348307-33.70308221 44.62199633-1.55363525 0.99229028-0.51912036-4.18773706-6.25800838-11.43555019-20.19725949-24.38375378-39.4022287-48.2036783-58.04461018-72.02608591-8.28605508-10.44201957-16.56962587-20.79834597-27.48853999-34.82328907-1.55239371-2.02804671-3.66861668-4.14054385-6.214541-6.16859056-10.35756916-7.2937648-24.90038986-5.22225194-32.19415587 5.17630028l0 0c-16.00952244 22.26504772-25.33133517 37.84362484-34.17873522 53.42468749-5.6966634 9.79622298-10.87420522 19.1602603-18.16672847 30.03446552-6.214541 8.84864281-5.6966634 20.75860446 1.07798224 29.04465955l0 0 120.31545617 139.5080063c21.74965199 25.39591361 41.98913729 39.42209946 63.26313628 40.97449195 23.30452999 2.02928826 44.06189292-10.3563264 64.81801307-37.84735068 18.12574542-24.90038986 45.05542474-61.70950102 71.50696554-99.04021566 17.60786659-24.38002794 34.78354754-48.73149189 50.31990128-70.00673242 6.77464443 11.90996165 13.46608121 23.86463342 20.75736292 36.24900654 33.70183946 59.67276108 73.61946268 129.17155067 104.25998328 178.41346848 3.58292351 7.76693472 11.34985823 12.98918666 20.6729125 12.98918666 37.89081805 0 51.86981069 0 68.485387 0 53.42717179 0.51663606 112.50257101 0.99229028 156.60793006 0l1.03575644 0c12.94820238 0 23.86587497-9.88439924 23.86587496-22.84998929l0 0c1.03327334-30.05806213 0.51663606-60.65511538 0-91.27328093 0-22.26753081-0.56010342-44.59964128 0-66.37040678l86.56766626 0c43.06960262 0 68.95979846-37.87964052 79.31736762-86.08456037 3.15073787-16.56962587 5.22225194-34.22220257 5.22225195-52.34173784 0-18.16921278-2.07151408-36.29371543-5.74137231-52.95276032C1036.31962962 244.78881108999997 1009.86684606 205.90694551 967.83548416 205.90694551L967.83548416 205.90694551zM-27.78519355 200.16557322000006c-19.1602603 91.74769239 31.11617362 159.71520057 96.96870157 216.76379584 1.03575643 1.03451489 2.07151408 2.07027132 3.15073787 2.58690858 10.83322217 7.25154019 25.33133517 4.10080234 32.10846269-6.77464442l62.70303285-95.92673501c2.63285904-3.06752899 3.70959974-6.73366138 4.18649429-10.31534334l-22.83011854-3.66861668 22.83011854 3.66861668c7.24905589-48.28937026 23.34551306-80.39534987 49.23943473-102.18971075 26.97066238-22.82887699 65.89723685-36.29247389 116.17242924-47.16667912 5.22100918-1.03948227 10.39855221-3.62514932 14.02370154-8.28729662 7.76817627-9.8806734 6.214541-24.94509875-3.62514933-32.66856732l-14.54282191 18.08103651 14.54282191-18.08103651c-94.37806714-76.29578908-192.94387132-81.43234784-266.00447211-48.28812873-27.53200735 12.9879439-51.91451958 31.15715667-70.03902225 53.9425663C-8.10705564 144.15149405-21.61287836 171.12463951999996-27.78519355 200.16557322000006L-27.78519355 200.16557322000006zM783.77999716 451.15032886L621.4331791 451.15032886l-0.47316992 0c-3.67234131 0-7.81288516 1.03575643-11.43927603 3.10727051-11.43430864 6.214541-15.01723338 20.19725949-8.80020806 31.62287491l0 0 56.48724909 100.07721362c3.62390657 8.30592583 11.95591331 14.04481385 21.27772482 14.04481385l105.29325541 0c12.94820238 0 23.30577154-10.91891412 23.30577153-23.34551306l0-102.20088828C807.08452716 461.50665648 796.72695801 451.15032886 783.77999716 451.15032886L783.77999716 451.15032886zM907.674651 133.79516643L508.88589919 133.79516643c-17.04652163 0-32.62634151-6.73241983-44.06189291-18.16797001-11.43555019-11.43679295-18.64238148-26.97314546-18.64238148-44.06189292 0-16.56838432 6.69019402-32.1506885 17.60662505-43.02240942 0-0.56382927 0.51912036-1.07922379 1.03575643-1.07922379l0 0 0 0c10.92015567-11.39208404 27.01537129-18.64113994 44.06189291-18.64113993l398.78875302 0c16.61557753 0 32.15193005 6.73117829 43.06960263 17.60662504l1.03824073 1.03451489c11.39084129 10.87296368 18.6846073 26.97190393 18.6846073 44.10163321 0 16.57335171-6.77464443 31.63280967-17.69231701 43.02737803l-0.99229029 1.03451489C940.34818572 127.06274659999997 924.8093489 133.79516643 907.674651 133.79516643L907.674651 133.79516643zM880.70771568 110.44717029000003c21.3162248 0 38.92409139-17.64760812 38.92409139-38.88310833 0-21.74841044-17.60786659-38.88186558-38.92409139-38.88186558-21.79436089 0-38.88559141 17.13345514-38.88559142 38.88186558C841.82212304 92.79956218999996 858.91335358 110.44717029000003 880.70771568 110.44717029000003L880.70771568 110.44717029000003zM765.56855979 110.44717029000003c21.83782825 0 38.92657447-17.64760812 38.92657447-38.88310833 0-21.74841044-17.08874623-38.88186558-38.92657447-38.88186558-21.18830702 0-38.88062403 17.13345514-38.88062404 38.88186558C726.68793575 92.79956218999996 744.38025277 110.44717029000003 765.56855979 110.44717029000003L765.56855979 110.44717029000003zM650.99199041 110.44717029000003c21.27524052 0 38.92657447-17.64760812 38.92657448-38.88310833 0-21.74841044-17.65133395-38.88186558-38.92657448-38.88186558-21.74841044 0-38.88062403 17.13345514-38.88062404 38.88186558C612.11136637 92.79956218999996 629.24357996 110.44717029000003 650.99199041 110.44717029000003L650.99199041 110.44717029000003zM535.90126926 110.44717029000003c21.75089474 0 38.88310833-17.64760812 38.88310833-38.88310833 0-21.74841044-17.13221359-38.88186558-38.88310833-38.88186558-21.27648327 0-38.88310833 17.13345514-38.88310833 38.88186558C497.01816214 92.79956218999996 514.62478719 110.44717029000003 535.90126926 110.44717029000003L535.90126926 110.44717029000003z"  horiz-adv-x="1024" />

    
    <glyph glyph-name="pinglun" unicode="&#58923;" d="M843.015085 712.339233H292.397672c-50.962822 0-90.370828-39.043117-90.370828-90.370828v-123.454092l-111.412757-126.373204 111.412757-129.413944v-102.412163c0-50.962822 39.043117-90.370828 90.370828-90.370828h550.617413c50.962822 0 90.370828 39.043117 90.370828 90.370828V622.333294c0 50.962822-38.921487 90.005939-90.370828 90.005939zM421.811617 291.014135c-49.746526 0-90.370828 40.259413-90.370828 90.370828 0 49.746526 40.259413 90.370828 90.370828 90.370827 49.746526 0 90.370828-40.259413 90.370827-90.370827 0-49.624896-40.745932-90.370828-90.370827-90.370828zM812.972562 381.506592c0-49.746526-40.259413-90.370828-90.370828-90.370828-49.746526 0-90.370828 40.259413-90.370828 90.370828 0 49.746526 40.259413 90.370828 90.370828 90.370828s90.370828-40.745932 90.370828-90.370828z m0 0"  horiz-adv-x="1024" />

    
    </font>
</defs>
</svg>
